<?xml version="1.0" encoding="utf-8" ?>
<svg baseProfile="full" height="300mm" version="1.1" viewBox="0,0,200,300" width="200mm" xmlns="http://www.w3.org/2000/svg" xmlns:ev="http://www.w3.org/2001/xml-events" xmlns:xlink="http://www.w3.org/1999/xlink"><defs /><rect fill="#222222" height="300" width="200" x="0" y="0" /><text fill="#FFFFFF" style="font-size:12px; font-family:Arial; font-weight:bold;" x="10" y="20">over 10km runs</text><text fill="#FFFFFF" style="font-size:4px; font-family:Arial" x="10" y="280">ATHLETE</text><text fill="#FFFFFF" style="font-size:9px; font-family:Arial" x="10" y="290">jean</text><text fill="#FFFFFF" style="font-size:4px; font-family:Arial" x="120" y="280">STATISTICS</text><text fill="#FFFFFF" style="font-size:3px; font-family:Arial" x="120" y="285">Number: 5</text><text fill="#FFFFFF" style="font-size:3px; font-family:Arial" x="120" y="290">Weekly: 1.0</text><text fill="#FFFFFF" style="font-size:3px; font-family:Arial" x="141" y="285">Total: 51.9 km</text><text fill="#FFFFFF" style="font-size:3px; font-family:Arial" x="141" y="290">Avg: 10.4 km</text><text fill="#FFFFFF" style="font-size:3px; font-family:Arial" x="167" y="285">Min: 10.0 km</text><text fill="#FFFFFF" style="font-size:3px; font-family:Arial" x="167" y="290">Max: 11.6 km</text><polyline fill="none" points="21.038696537492797,98.60036263204529 21.038696537492797,97.70866216238937 20.928716904018074,96.34987682109931 20.85539714852348,95.37324711764813 20.85539714852348,94.31169049296295 20.892057026270777,93.80214235160383 20.782077393028885,92.57073176809354 20.745417515048757,91.63655579189071 22.24847250478342,90.44760151734226 23.42158859432675,90.32021335794707 23.898167005972937,90.27775062943692 25.4378818734549,89.98051140891039 27.197556007886305,89.59834638488246 27.527494908077642,89.64080918257241 26.68431771872565,89.21618100992055 25.58452138490975,89.3860323309782 25.034623217768967,89.47095796556096 24.00814663944766,89.51342077626032 22.945010183146223,89.64080918257241 22.39511201600544,89.68327197607141 20.70875763730146,89.30110667910776 20.41547861485742,88.15460868296213 20.378818737110123,87.72997899411712 20.342158859362826,86.75332906577387 20.2688391036354,85.86160321670468 20.195519348140806,84.58770583276055 20.195519348140806,84.03568242225447 20.085539714666083,82.29468071652809 20.048879836918786,81.44540894916281 19.97556008119136,80.80845398642123 19.86558044794947,79.70439640851691 19.86558044794947,79.53454113664338 19.535641547758132,77.32641629394493 19.57230142550543,77.02916782430839 19.57230142550543,76.22234947953257 19.57230142550543,75.71277919271961 20.488798370584846,73.67449180674157 21.55193482665345,73.67449180674157 22.505091649480164,73.5470985135762 23.494908350287005,73.5470985135762 24.228105906164274,73.50463407396455 24.55804480635561,73.41970518155722 25.327902240213007,73.24984734482132 26.244399185059592,73.24984734482132 26.83095722994767,73.33477627186221 27.747454175027087,73.41970518155722 28.29735234193504,73.37724072893616 29.54378818720579,73.20738287482527 29.910386965144426,73.20738287482527 30.753564154496416,73.20738287482527 31.193482688162476,73.16491840040544 31.99999999976717,73.12245392182376 32.366598777938634,73.20738287482527 32.84317718935199,72.23069886866142 32.769857433624566,71.33894190468709 32.80651731137186,70.95675976385246 34.199592667864636,69.04584379520384 35.40936863538809,68.96091399295256 35.84928716882132,68.83351925711031 36.655804480658844,68.70612448215252 37.1690427698195,68.66365954859066 38.30549898161553,68.53626472176984 38.67209775932133,68.49379977074568 39.478615071158856,68.40886985586258 39.95519348257221,68.45133481541416 40.28513238276355,68.45133481541416 41.09164969436824,68.49379977074568 41.45824847253971,68.49379977074568 42.41140529536642,68.3239399236918 43.43788187368773,68.02668502432061 44.501018329989165,68.02668502432061 44.9042769856751,68.02668502432061 45.89409368601628,68.06915002295864 46.59063136437908,68.11161501720198 47.4704684317112,67.98422002137522 48.42362525430508,67.89929000247503 49.046843176940456,67.89929000247503 50.219959266716614,67.21984922740376 50.183299388736486,66.5404073430982 50.14663951098919,65.94589478438138 50.183299388736486,65.18152024655137 50.183299388736486,64.92672842208412 50.10997963324189,64.24728279397823 50.10997963324189,64.07742121370393 50.10997963324189,63.73769784500473 50.183299388736486,63.058250275673345 50.25661914469674,62.378801597078564 50.29327902221121,61.954145609546686 50.25661914469674,60.977435194159625 52.08961303438991,59.44866646337323 52.6028513237834,59.53359820690821 53.95926680229604,58.93907563854009 54.215885946759954,58.17468823119998 54.3991853359621,56.68837536426145 54.362525458214805,55.75411884509958 54.3991853359621,55.41438868182013 54.3991853359621,54.64999480012921 54.3991853359621,54.1828645147325 54.4358452137094,53.24860237064422 54.4358452137094,52.95133670300129 54.47250509168953,52.56913767565857 54.47250509168953,51.71980524677201 54.4358452137094,51.29513838238199 54.4358452137094,50.57320371820242 54.4358452137094,50.233469325030455 54.4358452137094,49.766334081825335 54.4358452137094,48.874528979329625 54.362525458214805,48.19505714226398 54.32586558023468,47.09091304067988 54.3991853359621,46.66624145233072 54.509164969436824,44.58534440421499 54.509164969436824,43.09898299872293 54.4358452137094,42.67430733633228 54.4358452137094,42.03729302989086 54.4358452137094,41.527680882718414 54.3991853359621,40.63585812327801 54.3991853359621,40.211179946840275 54.3991853359621,39.48922605239204 54.47250509168953,38.21518671218655 55.60896130348556,37.408293112384854 56.59877800405957,37.493229354557116 57.03869653772563,37.408293112384854 58.065173115814105,37.323356853070436 58.28513238276355,37.28088871674845 58.57841140520759,37.28088871674845 59.31160896131769,37.195952431327896 60.228105906164274,37.28088871674845 60.59470468410291,37.323356853070436 61.40122199594043,37.28088871674845 61.767820773646235,37.238420576264616 62.57433808548376,37.238420576264616 63.56415478605777,37.408293112384854 63.89409368624911,37.365824984852225 64.18737270869315,37.323356853070436 65.03054989804514,37.28088871674845 66.20366598758847,37.408293112384854 66.64358452125452,37.408293112384854 67.41344195487909,37.408293112384854 68.21995926671661,37.450761235610116 68.91649694484659,37.365824984852225 69.28309572301805,37.28088871674845 70.08961303462274,37.28088871674845 70.52953156805597,37.195952431327896 71.51934826862998,37.195952431327896 72.03258655802347,37.28088871674845 72.87576374737546,37.323356853070436 73.35234215855598,37.28088871674845 74.15885947039351,37.238420576264616 74.59877800382674,37.238420576264616 75.29531568218954,37.15348428217112 76.13849287154153,37.111016128532356 76.65173116093501,37.111016128532356 77.64154786150903,37.15348428217112 78.44806517288089,37.111016128532356 79.25458248471841,37.15348428217112 80.0977596740704,37.111016128532356 80.57433808548376,37.068547970819054 81.30753564136103,37.068547970819054 81.74745417525992,37.111016128532356 82.44399185338989,37.15348428217112 83.72708757640794,37.323356853070436 84.71690427698195,37.238420576264616 85.12016293266788,37.28088871674845 86.0,38.51246290715062 85.81670061079785,38.89467484570923 85.56008146633394,39.659097669646144 85.45010183285922,40.25364778394578 85.34012219961733,40.89066482093767 85.34012219961733,40.97560035219067 85.01018329942599,42.12222832720727 84.90020366595127,42.4619693425484 84.82688391045667,42.71677492215531 84.71690427698195,43.26885314239189 84.60692464350723,43.48119072444388 84.60692464350723,43.6935281981132 84.38696537679061,44.457942206034204 84.27698574331589,44.967550764617044 84.13034623209387,45.73196243221173 84.09368635434657,46.114167739404365 83.91038696537726,46.87857730066753 83.8004073316697,47.34571578571922 81.56415478605777,48.40739221050171 78.66802443983033,48.66219414945226 78.08146639494225,48.57726018712856 78.19144602841698,48.534793199418345 78.74134419555776,48.70466112406575 80.75763747445308,49.25673140012077 81.74745417525992,49.04439676529728 82.59063136437908,48.91699593240628 83.25050916499458,50.31840294940048 83.14052953151986,50.658137273043394 82.95723014255054,51.38007178984117 82.81059063132852,51.804738567589084 82.6639511201065,52.65407082310412 82.59063136437908,52.95133670300129 82.40733197540976,53.37600187739008 82.29735234216787,53.673267241654685 82.18737270869315,54.01299882636522 82.04073319747113,54.69246116382419 81.9674134417437,54.94725925428793 81.89409368624911,55.202057188842446 81.67413441953249,55.923983822896844 81.63747454155236,56.34864596358966 81.56415478605777,56.64590920440969 81.45417515258305,57.41029941980378 81.38085539708845,57.8349600439542 81.27087576384656,58.59934807525133 81.08757637487724,59.108939316065516 80.9409368634224,59.74592748974101 80.8676171079278,60.17058573052054 80.75763747445308,60.807572279067244 80.72097759670578,61.10483233470586 80.64765784097835,61.40209217809024 80.61099796323106,61.741817453410476 80.42769857426174,62.42126717203064 80.35437881853431,62.888388209976256 80.20773930754513,63.567836056725355 80.02443991834298,64.03495580769959 79.73116089613177,64.92672842208412 79.62118126265705,65.39384664795944 79.51120162918232,65.98835999527364 79.47454175143503,66.28561635044753 79.4012219957076,66.62533763929969 79.25458248471841,67.30477938480908 79.18126272922382,67.68696487945272 78.74134419555776,68.57872966834111 78.3014256618917,69.38556283092475 78.08146639494225,69.72528158925707 77.60488798376173,70.78690092192846 77.31160896131769,71.59372980362969 77.20162932784297,71.84851754657575 76.87169042765163,72.7827379363298 76.54175152746029,73.71695622906554 76.02851323829964,74.99088688506163 75.55193482688628,75.88263602429652 75.22199592646211,76.51959852539585 75.07535641547292,76.85931146063376 74.67209775955416,77.70859258581186 74.56211812631227,78.00584057022934 74.2321792258881,78.81265545770293 74.08553971466608,79.15236652144813 73.82892057020217,79.87425161123974 73.68228105898015,80.25642556353705 73.1323828920722,81.48787257872755 73.02240325859748,81.65772705341806 72.83910386962816,82.29468071652809 72.76578411390074,82.54946190875489 72.17922606924549,83.65351193994866 71.92260692454875,84.20553585732705 71.77596741332673,84.54524251946714 71.66598778008483,84.84248562139692 71.29938900191337,85.5643608426326 70.96945010172203,86.32869794740691 70.85947046824731,86.58347667031921 70.71283095725812,86.83825523743872 70.45621181256138,87.47520097283996 70.30957230133936,87.85736794615514 69.97963340114802,88.57923793871305 69.72301425645128,89.3860323309782 69.57637474522926,89.64080918257241 69.61303462297656,89.85312310649897 70.01629327889532,89.00386676102062 70.49287169030868,88.28199750513886 70.67617107927799,87.85736794615514 71.26272912416607,86.54101356069441 71.55600814661011,85.73421365386457 71.73930753557943,85.26711825618986 71.99592668027617,84.58770583276055 72.17922606924549,84.1206091484637 72.61914460267872,83.27134110670886 72.98574338085018,82.46453486208338 73.24236252554692,82.03989936833386 73.31568228104152,81.7851178640849 73.42566191451624,81.44540894916281 73.79226069245487,80.76599028761848 73.9389002036769,80.46874427443254 74.04887983691879,80.12903428508434 74.30549898161553,79.53454113664338 74.37881873734295,79.3222219493473 74.48879837058485,79.15236652144813 74.59877800382674,78.8551193557505 74.92871690401807,78.0907685267448 75.07535641547292,77.83598460510257 75.25865580420941,77.45380843014573 75.62525458238088,76.56206265740911 75.84521384933032,76.13742114161141 76.21181262726896,75.24567254839349 76.39511201600544,74.94842259274446 76.68839103868231,74.01420706423232 76.8350305496715,73.67449180674157 77.23828920559026,72.7827379363298 77.38492871681228,72.48548622161616 77.5315682280343,71.97591135965195 77.45824847230688,71.67865906865336 77.38492871681228,71.50880052128923 77.60488798376173,70.61704201076645 77.67820773925632,70.19239442929393 77.75152749475092,70.02253527531866 77.97148676170036,69.64035192568554 78.11812627292238,69.5978870872932 78.15478615066968,69.55542224470992 78.15478615066968,69.55542224470992 78.22810590616427,69.38556283092475 76.72505091642961,68.79105433641234 75.84521384933032,68.87598417332629 75.33197556016967,68.87598417332629 74.45213849283755,68.96091399295256 73.97556008142419,69.04584379520384 73.05906313634478,69.08830868988298 72.69246435840614,69.08830868988298 71.73930753557943,69.17323846602812 71.26272912416607,69.17323846602812 70.5661914460361,69.25816822500201 70.23625254584476,69.30063309788238 69.832993889926,69.38556283092475 69.09979633404873,69.47049254656304 68.43991853366606,69.5978870872932 68.10997963347472,69.68281675968319 67.74338085530326,69.81021123557002 67.48676171083935,69.81021123557002 67.01018329919316,69.76774641461088 66.82688391022384,69.76774641461088 66.57026476575993,69.76774641461088 65.80040733190253,69.85267605210538 65.36048879823647,69.89514086447889 65.14052953151986,69.89514086447889 64.51731160888448,69.89514086447889 64.11405295296572,69.89514086447889 63.41751527483575,69.89514086447889 62.97759674140252,69.93760567242862 62.1344195518177,69.93760567242862 61.80448065162636,69.98007047612919 61.47454175143503,69.98007047612919 60.70468431781046,69.93760567242862 60.484725050861016,69.93760567242862 60.2647657841444,69.98007047612919 59.09164969436824,70.10746486100834 58.87169042765163,70.10746486100834 58.651731160702184,70.10746486100834 58.43177189398557,70.10746486100834 57.771894093602896,70.19239442929393 57.478615070926026,70.23485920700477 57.14867617096752,70.27732398026274 56.52545824809931,70.31978874915512 56.2688391036354,70.31978874915512 55.902240325696766,70.36225351385656 55.645621181232855,70.36225351385656 55.27902240306139,70.36225351385656 54.94908350287005,70.40471827413421 54.215885946759954,69.25816822500201 54.25254582474008,68.96091399295256 54.362525458214805,68.15408000710886 54.32586558023468,67.68696487945272 54.32586558023468,67.34724445716711 54.28920570248738,66.58287249330897 54.28920570248738,66.41301186621422 54.28920570248738,66.15822079559439 54.32586558023468,65.94589478438138 54.32586558023468,65.22398553555831 54.362525458214805,64.84179777922691 54.32586558023468,64.4596096718742 54.32586558023468,63.65276695942157 54.28920570248738,62.845922682783566 54.28920570248738,62.633594981598435 54.32586558023468,62.33633601779002 54.32586558023468,62.124008056678576 54.32586558023468,61.5294891888625 54.28920570248738,61.14729803969385 54.28920570248738,60.7226407956623 54.28920570248738,60.21305153070716 54.32586558023468,59.915790838043904 54.3991853359621,59.19387112889672 54.32586558023468,58.25962023457396 54.32586558023468,57.66509584634332 54.4358452137094,56.73084151989315 54.3991853359621,55.71165258993278 54.362525458214805,55.371922391845146 54.362525458214805,55.07465824112296 54.32586558023468,54.522595683374675 54.32586558023468,54.225330925983144 54.32586558023468,53.88559951461502 54.32586558023468,53.63080077400082 54.3991853359621,52.95133670300129 54.362525458214805,52.526671095431084 54.362525458214805,52.186938297207234 54.3991853359621,51.465005180070875 54.362525458214805,51.082804787525674 54.32586558023468,50.82800433086231 53.88594704680145,51.84720522159478 53.88594704680145,52.31433812898467 53.88594704680145,53.20613585959654 53.95926680229604,53.54586782582919 53.99592668027617,53.80066661830642 53.99592668027617,54.39519652767922 53.95926680229604,54.7349275231536 53.922606924548745,55.07465824112296 53.95926680229604,55.8390513426566 53.95926680229604,56.221247366891475 53.99592668027617,56.81577381808893 54.03258655802347,57.32536724300007 53.99592668027617,57.622629786026664 53.95926680229604,58.047290193411754 53.922606924548745,58.81167783471756 53.922606924548745,59.15140522469301 53.88594704680145,59.958256664220244 53.922606924548745,60.38291468837997 53.922606924548745,60.68017504736781 54.03258655802347,61.911679987068055 53.99592668027617,62.378801597078564 53.95926680229604,62.67606053047348 53.99592668027617,63.440439669881016 53.99592668027617,65.30891610032995 53.99592668027617,65.98835999527364 53.95926680229604,66.75273305096198 53.88594704680145,67.09245395864127 53.922606924548745,67.43217458872823 53.95926680229604,68.02668502432061 53.95926680229604,68.19654499279568 53.99592668027617,68.49379977074568 53.95926680229604,68.83351925711031 53.95926680229604,69.5978870872932 52.23625254584476,70.61704201076645 51.832993889926,70.57457727208384 51.503054989734665,70.61704201076645 51.356415478512645,70.65950674502528 50.25661914469674,70.74443620064994 49.89002036652528,70.74443620064994 49.083503054920584,70.82936563892872 48.60692464350723,70.8718303515634 48.27698574308306,70.82936563892872 47.61710794293322,70.8718303515634 47.28716904274188,70.8718303515634 46.517311608884484,70.99922446347773 46.18737270869315,71.08415384986438 44.86761710769497,71.12661853645113 44.354378818534315,71.16908321887604 43.25458248448558,71.21154789681896 42.96130346227437,71.2540125704254 42.484725050861016,71.29647723969538 42.3014256618917,71.29647723969538 42.00814663944766,71.2540125704254 41.42158859455958,71.33894190468709 41.23828920559026,71.33894190468709 41.054989816620946,71.29647723969538 40.798370671924204,71.33894190468709 40.02851323806681,71.46633587375982 39.7352342158556,71.50880052128923 39.331975559936836,71.5512651646568 38.56211812607944,71.59372980362969 38.2321792258881,71.63619443841162 37.97556008119136,71.63619443841162 37.31568228104152,71.76358831627294 37.02240325836465,71.80605293365079 36.14256619149819,71.84851754657575 35.70264765783213,71.84851754657575 35.079429735196754,71.84851754657575 34.71283095702529,71.84851754657575 33.79633401194587,71.93344675967819 33.46639511175454,71.97591135965195 32.87983706709929,72.01837595537654 32.623217922402546,72.10330513358349 31.890020366525277,72.14576971626957 31.56008146633394,72.18823429464828 31.26680244365707,72.23069886866142 30.533604887779802,72.18823429464828 30.093686354113743,72.23069886866142 29.653767820680514,72.31562800359097 28.7006109978538,72.31562800359097 27.894093686249107,72.40055712126195 24.26476578391157,72.82520244971965 23.898167005972937,72.82520244971965 23.311608961084858,72.82520244971965 22.468431771732867,72.82520244971965 22.13849287154153,72.86766695868573 21.881873726844788,72.86766695868573 21.25865580420941,72.91013146334444 20.85539714852348,72.95259596369579 20.598778003826737,72.95259596369579 19.902240325696766,72.91013146334444 19.205702647566795,72.86766695868573 18.802443991880864,72.91013146334444 18.472505091456696,72.99506045965245 17.44602851313539,73.29231181042269 16.41955193458125,73.29231181042269 15.539714867481962,73.29231181042269 15.13645621179603,73.33477627186221 14.256619144463912,73.589562949026 14.0,73.41970518155722 14.733197555877268,73.29231181042269 15.209775967290625,73.16491840040544 16.162932789884508,73.03752495144727 16.639511201297864,72.95259596369579 17.84928716905415,72.91013146334444 17.15274949045852,73.0799894388183 16.71283095702529,73.20738287482527 15.869653767673299,73.33477627186221 15.319755600532517,73.37724072893616 14.476578411180526,73.41970518155722 14.4032586554531,73.20738287482527 14.916496944846585,73.12245392182376 15.942973523167893,72.99506045965245 16.309572301106527,72.95259596369579 16.969450101722032,72.82520244971965 18.14256619126536,72.91013146334444 18.729124235920608,74.43885074614082 18.802443991880864,75.37306532161892 18.87576374737546,76.13742114161141 18.802443991880864,76.64699090857175 18.83910386939533,77.62366455126903 18.87576374737546,79.91671540105017 19.059063136344776,80.80845398642123 19.242362525314093,81.61526344128652 19.27902240306139,82.25221716923988 19.27902240306139,82.54946190875489 19.315682280808687,83.01656035639462 19.498981670010835,83.5685851185408 19.755600814241916,84.07814578758553 19.608961303252727,84.75755904262769 19.57230142550543,85.47943441098323 19.57230142550543,85.8191400335345 19.608961303252727,86.24377167160856 19.645621181000024,87.51766398717882 19.645621181000024,87.77244198252447 19.68228105874732,88.28199750513886 19.535641547758132,88.96140389831271 19.462321792030707,89.21618100992055 18.802443991880864,89.89558587831561 18.252545824740082,89.98051140891039 17.226069246418774,90.19282515952364 16.932790223741904,90.99961642426206 17.44602851313539,90.87222843393101 18.28920570248738,90.78730308514787 18.472505091456696,90.87222843393101 19.059063136344776,90.87222843393101 20.085539714666083,91.46670538926264 19.938900203444064,92.14610658431775 19.902240325696766,92.6131942627253 19.792260692222044,93.4199808362464 19.86558044794947,93.80214235160383 19.902240325696766,94.60892662074184 19.97556008119136,95.16093600922613 20.01221995917149,95.54309592625941 20.085539714666083,95.88279333579703 19.902240325696766,96.77449771674583 19.97556008119136,97.19911817915272 20.085539714666083,98.3455912641657 20.12219959241338,98.81267198626301 20.195519348140806,99.57698476448422 20.2688391036354,99.74683185783215 20.305498981382698,100.00160236810916 19.095723014092073,101.23299096964183 18.54582484695129,101.1480677347281 18.362525457981974,101.1480677347281 18.069246435537934,101.1480677347281 16.27291242359206,102.37945294490783 16.052953156642616,102.93145202918095" stroke="#4dd2ff" stroke-linecap="round" stroke-linejoin="round" stroke-width="0.5"><title>2019-07-20 10.0km</title></polyline><polyline fill="none" points="119.45169712789357,101.64022908057086 119.45169712789357,101.24829397740541 119.41409921692684,100.11603499180637 119.41409921692684,99.59345290859346 119.37650130549446,98.59183546129498 119.15091383829713,96.71924001700245 118.88772845966741,95.58696901923395 121.48198433429934,92.49498292032513 122.64751958241686,92.40788439600146 123.2490861620754,92.36433512726217 124.07624020893127,92.27723657616298 124.52741514379159,92.27723657616298 125.73054830287583,92.19013800751418 125.05378590081818,91.62399687780999 123.32428198447451,91.66754622207372 122.9483028720133,91.7110955620301 122.08355091395788,91.75464489741717 121.594778067898,91.7110955620301 119.56449086172506,91.62399687780999 118.73733681463636,90.62236073211534 118.69973890343681,90.14331652715919 118.66214099223725,89.01102808795986 118.58694516983815,87.66098794672871 118.58694516983815,87.1383906166302 118.54934725840576,85.96254428502289 118.51174934743904,85.61414474985213 118.39895561360754,84.43829421958071 118.32375979120843,84.08989344045403 118.36135770240799,83.34954084068886 118.24856396880932,81.8252814449661 118.24856396880932,81.25912656885339 118.13577023497783,80.2574661024264 118.09817232377827,79.86551136692287 117.94778067874722,79.03805018813 117.94778067874722,78.55899298301665 117.98537859017961,77.68797850536066 117.98537859017961,77.25247059995309 119.18851174949668,75.81529135984601 119.67728459532373,75.81529135984601 120.5044386421796,75.85884231707314 120.91801566584036,75.81529135984601 121.29399477806874,75.771740398166 122.15874673635699,75.641087486787 122.49712793738581,75.641087486787 122.83550913864747,75.641087486787 123.775456919102,75.55398552352563 124.18903394252993,75.55398552352563 125.80574412550777,75.51043453533202 126.36971279396676,75.37978154377197 127.49765013065189,75.292679527367 127.91122715407982,75.20557749291766 128.88877284596674,75.16202646921738 129.41514360322617,75.11847544097691 130.61827676254325,73.20222579850815 130.7310704961419,72.94091836264124 130.91906005213968,72.24409775127424 133.06214099214412,70.67624721655739 133.47571801557206,70.71979869811912 134.41566579649225,70.63269573068828 134.94203655375168,70.54559274535859 135.8819843342062,70.45848974242108 136.2579634464346,70.37138672161382 136.5963446474634,70.41493823425844 137.49869451718405,70.28428368305322 138.7018276762683,70.24073215704993 139.07780678849667,70.24073215704993 140.05535248061642,70.19718062673928 140.39373368164524,70.19718062673928 141.40887728449889,70.19718062673928 141.8600522193592,70.19718062673928 142.53681462141685,70.11007755273022 143.28877284610644,69.93587135107373 143.77754569193348,69.93587135107373 144.6798955614213,69.89231978959288 145.09347258484922,69.89231978959288 146.1086161879357,69.84876822368824 146.59738903399557,69.84876822368824 147.42454308108427,69.7181134991697 147.95091383811086,69.67456191551173 148.70287206256762,69.63101032725535 149.41723237629049,68.54221917912946 149.41723237629049,67.58408067128039 149.41723237629049,67.10501061091782 149.41723237629049,65.97266105766175 149.49242819845676,64.7096522426873 149.41723237629049,64.18702681225841 149.3796344648581,63.359535238560056 149.3796344648581,62.92401271330891 149.34203655342571,61.835204455856 149.34203655342571,61.09481325413799 150.24438642314635,60.746393420617096 151.33472584863193,60.83349840575829 151.7483028722927,60.83349840575829 153.13942558760755,60.35442076798063 153.21462141000666,60.00600033020601 153.59060052223504,58.7429738585779 153.55300261103548,57.65415493489127 153.59060052223504,57.175073728431016 153.59060052223504,56.17335674088099 153.62819843366742,55.60716783828684 153.66579634486698,54.43123464062228 153.62819843366742,53.90859662389266 153.66579634486698,52.99397855444113 153.66579634486698,52.558445451490115 153.66579634486698,51.73093133151997 153.66579634486698,51.38250385361607 153.66579634486698,51.03407609113492 153.66579634486698,50.20655901543796 153.66579634486698,49.771023067849455 153.66579634486698,48.81284241864341 153.8161879896652,47.941767234384315 153.8913838120643,46.41738138376968 153.74099216726609,45.5898553559673 153.66579634486698,45.110760606476106 153.55300261103548,44.28323204503977 153.51540469983593,43.80413582868641 153.47780678863637,42.97660473358701 153.51540469983593,42.58461575995898 153.62819843366742,41.80063673265977 153.59060052223504,39.92779211507877 154.83133159275167,38.01138446337427 155.32010443881154,38.01138446337427 156.22245430806652,38.05493927837233 156.59843342052773,38.05493927837233 157.5007832897827,38.05493927837233 157.83916449104436,38.05493927837233 158.17754569207318,38.01138446337427 158.89190600533038,38.09849408865557 159.41827676235698,38.05493927837233 160.17023498704657,38.05493927837233 161.034986945102,38.05493927837233 161.52375979116186,38.05493927837233 162.31331592681818,38.14204889480607 162.80208877287805,38.14204889480607 163.6668407311663,38.14204889480607 164.15561357699335,38.14204889480607 164.90757180168293,38.14204889480607 165.32114882511087,38.14204889480607 166.07310704956762,38.22915849357378 166.44908616202883,38.14204889480607 167.3514360312838,38.22915849357378 167.72741514374502,38.272713286220096 169.19373368145898,38.31626807455905 170.54725848557428,38.22915849357378 170.9984334204346,38.18560369632905 171.78798955632374,38.18560369632905 172.31436031335033,38.18560369632905 174.1566579635255,38.14204889480607 174.68302872078493,38.09849408865557 175.47258485644124,38.14204889480607 175.88616187986918,38.14204889480607 176.67571801575832,38.14204889480607 177.0516971279867,38.14204889480607 178.06684073107317,38.14204889480607 178.5932114883326,38.09849408865557 179.3451697130222,38.14204889480607 179.79634464764968,38.14204889480607 180.88668407313526,38.31626807455905 181.18746736296453,38.359822858299594 181.9394255876541,38.359822858299594 182.27780678868294,38.359822858299594 183.1425587469712,38.31626807455905 183.480939948,38.31626807455905 184.383289817255,38.22915849357378 184.7592689297162,38.18560369632905 186.0,39.535800340992864 185.84960835520178,39.97134673449909 185.58642297657207,41.01665626495378 185.43603133177385,41.53931007013307 185.17284595314413,42.49750705019687 185.0224543083459,42.93305042083375 184.94725848571397,43.76058160053799 184.79686684068292,44.63166531917523 184.68407310708426,45.110760606476106 184.49608355085365,45.85117953806184 184.04490861622617,47.24490580699057 183.96971279382706,47.767551984172314 183.89451697142795,48.5079663064098 182.05221932125278,49.68391582494951 181.0370757181663,49.72746944858227 180.51070496090688,49.814576682518236 178.1420365537051,49.85813029287965 179.11958224559203,50.075898277777014 179.53315926901996,50.250112585694296 180.28511749347672,50.33721971299383 180.73629242833704,50.467880370648345 181.52584856399335,50.51143391424557 181.9394255876541,50.467880370648345 182.69138381211087,50.380773269891506 183.44334203656763,51.55671762806014 183.21775456913747,52.03580514132045 182.95456919074059,52.95042526422185 182.80417754570954,53.47306445430149 182.65378590091132,54.47478777973447 182.54099216707982,54.95387201735866 181.97702349885367,57.087967996747466 181.90182767645456,57.43639081684523 181.71383812022395,58.220341121865204 181.6762402090244,58.52521029609488 181.60104438639246,58.91718462863355 181.45065274159424,59.61402699761675 181.37545691919513,60.00600033020601 181.33785900799558,60.35442076798063 181.0370757181663,61.181918168003904 180.96187989553437,61.66099487684551 180.7738903395366,62.61914668121608 180.73629242833704,63.01111725383089 180.47310704970732,64.05637035469408 180.17232375987805,65.05806884073536 179.83394255884923,66.49528430157807 179.68355091381818,66.88725131464889 179.4955613578204,67.758287832723 179.4203655354213,68.19380542510771 179.38276762422174,68.49866747538908 179.2323759791907,69.15194256434916 179.15718015679158,69.50035553620546 179.08198433439247,69.7181134991697 177.9540469974745,70.67624721655739 176.82610966078937,70.76335017516976 176.48772845952772,70.71979869811912 175.09660574421287,70.8504531159706 174.72062663175166,70.8504531159706 173.81827676249668,70.894004579779 173.32950391666964,70.93755603898899 172.57754569198005,70.9811074937752 172.16396866831928,71.02465894425404 171.22402088786475,71.11176183162024 170.77284595300443,71.15531326874043 169.79530026111752,71.24241612956394 169.23133159265853,71.3295189726341 168.3665796346031,71.46017320384271 167.9906005221419,71.50372460539802 167.16344647528604,71.59082739509176 166.8250652742572,71.63437878325931 166.41148825082928,71.67793016691576 165.58433420374058,71.67793016691576 165.2083550915122,71.72148154629394 164.34360313322395,71.67793016691576 163.36605744133703,71.67793016691576 162.7644908616785,71.80858429160435 161.97493472578935,71.93923837615876 161.29817232396454,72.37475170259131 162.46370757184923,72.94091836264124 162.83968668431044,72.89736710768193 163.55404699756764,72.81026458457927 164.0052219319623,72.81026458457927 164.86997389048338,72.76671331646503 165.2083550915122,72.76671331646503 166.22349869459867,72.76671331646503 166.7498694518581,72.76671331646503 167.50182767631486,72.72316204372328 168.0281984335743,72.72316204372328 168.89295039186254,72.67961076664506 169.30652741529047,72.67961076664506 170.84804177540354,72.50540561386151 171.29921671026386,72.41830301078153 172.652741514612,72.11344376005582 173.21671018283814,72.11344376005582 174.2318537859246,72.0263410769694 174.75822454318404,71.98278972870321 175.58537859027274,71.85213565744925 175.96135770250112,71.80858429160435 177.72845953004435,73.68128901565797 177.54046997404657,73.94259599826182 177.1268929503858,74.6829649139836 176.93890339438803,74.98782232956728 176.45013054832816,75.945944217965 176.07415143609978,76.94761480187299 175.73577023507096,77.68797850536066 175.58537859027274,78.03638450961444 175.28459530021064,78.73319566526334 175.13420365564525,79.03805018813 174.8710182767827,79.69130914687412 174.72062663175166,79.99616298545152 174.53263707575388,80.43166809141985 174.2318537859246,81.25912656885339 174.04386422992684,81.65108002457418 173.70548302889802,82.43498585640918 173.5174934726674,82.78338798618643 173.14151436043903,83.52374156785663 172.95352480420843,83.91569294431247 172.6151436031796,84.6560445621435 172.46475195838138,85.09154491414665 172.088772846153,85.875444427802 171.78798955632374,86.7028923529142 171.6375979112927,87.22549021607847 171.29921671026386,87.92228637170047 171.14882506546564,88.31423370944685 170.9984334204346,88.61908138997387 170.50966057437472,89.62072223608266 170.2840731071774,90.18686602258822 169.98328981734812,90.92720676437602 169.7201044387184,91.40625008946517 169.4569190600887,92.23368729415233 169.2689295038581,92.84337683962076 169.6449086163193,92.66917991556693 171.2616187990643,92.23368729415233 171.33681462146342,91.88529287712299 171.6375979112927,91.05785499725607 171.78798955632374,90.70945962055703 171.9007832899224,90.40461343285278 172.23916449095123,89.75137086890754 172.3519582245499,89.53362312534591 172.5399477807805,89.1416769073403 172.7279373370111,88.53198207487003 172.8031331594102,88.14003493706696 172.91592689300887,87.79163717920892 173.36710182763636,86.92064154034597 173.5174934726674,86.57224278716603 173.81827676249668,85.91899435862433 173.93107049632818,85.61414474985213 174.0814621411264,85.17864493117668 174.49503916455433,84.30764396078303 174.68302872078493,83.87214280909393 175.09660574421287,83.00113917290582 175.24699738924392,82.65273722086567 175.54778067907318,81.91238212841563 175.73577023507096,81.47687853305251 175.88616187986918,81.17202575190458 176.3373368147295,80.21391559412587 176.5253263709601,79.64775858065696 176.82610966078937,78.82029697971302 176.97650130535476,78.5154423013737 177.27728459541686,77.86218154308153 177.7660574412439,76.7734113909828 177.8788511750754,76.46855525075807 178.02924281987362,76.16369889277848 178.33002610970289,75.51043453533202 178.4804177545011,75.16202646921738 178.7812010445632,74.46520948389661 178.93159268936142,74.11680056466139 179.11958224559203,73.68128901565797 179.4203655354213,73.07157210059813 179.4955613578204,72.81026458457927 179.57075718021952,72.63605948511395 179.4955613578204,71.93923837615876 179.3075718015898,71.59082739509176 177.72845953004435,70.54559274535859 177.1644908618182,70.58914424022078 176.07415143609978,70.63269573068828 175.66057441267185,70.71979869811912 174.64543080935255,70.80690164770931 174.19425587472506,70.8504531159706 173.29190600547008,70.894004579779 172.76553524797782,70.93755603898899 172.01357702352107,71.02465894425404 171.6375979112927,71.06821039019269 171.2616187990643,71.11176183162024 170.39686684077606,71.15531326874043 169.908093994949,71.24241612956394 169.19373368145898,71.3295189726341 168.3665796346031,71.46017320384271 167.4642297651153,71.54727600241313 167.12584856385365,71.54727600241313 166.22349869459867,71.59082739509176 165.7347258485388,71.63437878325931 164.98276762408204,71.67793016691576 164.64438642305322,71.67793016691576 164.19321148842573,71.67793016691576 163.21566579653881,71.72148154629394 162.83968668431044,71.76503292113193 161.82454308099113,71.85213565744925 161.33577023493126,71.85213565744925 160.35822454304434,71.85213565744925 159.98224543081596,71.93923837615876 159.19268929515965,72.06989242081181 158.6287206269335,72.15699509484693 157.72637075721286,72.24409775127424 157.35039164498448,72.20054642535979 156.335248041898,72.15699509484693 154.41775456932373,72.15699509484693 153.59060052223504,70.41493823425844 153.55300261103548,70.0229744608223 153.55300261103548,69.7616650784912 153.51540469983593,68.716425949533 153.51540469983593,68.19380542510771 153.44020887743682,67.06145876049413 153.51540469983593,66.66949190743617 153.51540469983593,65.75490118382731 153.51540469983593,65.2758290702186 153.51540469983593,64.3612353602075 153.47780678863637,63.83860950302915 153.51540469983593,63.185326281847665 153.55300261103548,62.70625128390384 153.51540469983593,61.79165206770995 153.51540469983593,61.39968037515064 153.55300261103548,60.528630880318815 153.55300261103548,60.22376313718269 153.06422976520844,60.44152583304094 153.13942558760755,60.96415584994247 153.1770234988071,61.79165206770995 153.1770234988071,62.14007104790653 153.21462141000666,63.09822177668684 152.9890339425765,64.75320433295565 153.06422976520844,65.49358918858343 153.06422976520844,65.79845316748833 153.06422976520844,66.19042082040687 153.06422976520844,67.1485624567722 153.10182767617516,67.58408067128039 153.13942558760755,68.45511576731224 153.1770234988071,68.8470809807186 153.13942558760755,69.67456191551173 153.10182767617516,70.11007755273022 153.13942558760755,70.8504531159706 151.86109660589136,72.41830301078153 151.52271540486254,72.37475170259131 150.65796344657429,72.46185431457707 150.31958224554546,72.46185431457707 149.41723237629049,72.54895690866397 148.96605744143017,72.59250819915906 148.0261096607428,72.67961076664506 147.68772845971398,72.67961076664506 146.67258485639468,72.72316204372328 146.14621409936808,72.76671331646503 145.20626631868072,72.81026458457927 144.26631853799336,72.89736710768193 143.81514360336587,72.89736710768193 142.6872062664479,72.98446961300215 142.12323759798892,73.07157210059813 141.29608355090022,73.11512333765859 140.80731070507318,73.07157210059813 139.94255874678493,73.15867457026616 139.6041775457561,73.15867457026616 138.8146214100998,73.28932824163348 137.68668407318182,73.28932824163348 137.1603133159224,73.41998187295394 135.91958224540576,73.68128901565797 135.46840731077828,73.76839136102353 134.64125326368958,73.76839136102353 134.22767624026164,73.76839136102353 133.51331592700444,73.81194252704154 132.986945169745,73.85549368860666 132.0093994778581,73.94259599826182 131.63342036562972,73.9861471465556 130.88146214117296,73.94259599826182 130.5806788513437,73.8990448457771 129.97911227168515,73.94259599826182 129.49033942562528,73.9861471465556 128.77597911236808,74.11680056466139 127.87362924288027,74.24745394272031 127.3848563968204,74.24745394272031 126.63289817236364,74.24745394272031 126.29451697133482,74.29100505975657 125.80574412550777,74.24745394272031 124.97859007841907,74.37810728070326 124.45221932115965,74.37810728070326 123.54986945167184,74.46520948389661 123.02349869464524,74.50876057872665 122.2339425587561,74.55231166927842 121.33159268926829,74.6394138368778 120.8804177546408,74.6829649139836 119.71488250675611,74.77006705492386 119.15091383829713,74.8136181187001 118.28616188000888,77.29602141058422 118.24856396880932,78.64609433300211 118.13577023497783,78.95094891809276 118.17336814617738,79.73485970852198 118.24856396880932,80.30101660633227 118.54934725840576,82.34788527942146 118.51174934743904,82.7398377355421 118.54934725840576,83.78504252544371 118.58694516983815,84.17699366199668 118.66214099223725,85.61414474985213 118.58694516983815,86.52869292310788 118.39895561360754,87.22549021607847 117.68459530035034,88.61908138997387 117.83498694514856,89.70782132900786 117.94778067874722,90.0562175232044 117.9101827677805,90.66591017856263 117.53420365531929,91.79819422852597 117.38381201028824,91.88529287712299 116.14308094000444,92.53853217576398 114.07519582239911,93.10467209268245 115.6543080941774,92.97402448623325 116.66945169726387,92.93047527511953 117.87258485658094,93.4530655144481 118.17336814617738,94.54179312524502 118.21096605760977,95.7611647528538 118.32375979120843,97.1982768427697 118.43655352503993,97.76441058015916 118.51174934743904,98.02570282111992 118.58694516983815,98.50473818086903 118.69973890343681,99.20151592645561 118.6245430810377,99.59345290859346 118.47415143600665,100.33377733759698 118.47415143600665,101.50958408613224 117.00783289829269,101.98861553662573 116.06788511760533,101.98861553662573 115.80469973897561,101.94506724533858 114.0,101.81442234414862" stroke="#4dd2ff" stroke-linecap="round" stroke-linejoin="round" stroke-width="0.5"><title>2019-11-24 10.1km</title></polyline><polyline fill="none" points="86.0,152.11889741325285 77.68389057740569,153.49453116158838 76.77724706905428,153.4583303417312 74.36995223618578,153.3135270253988 72.30655666522216,148.24537377126398 71.58749457239173,145.56646355905104 71.43117672600783,145.3130520877894 71.08727746410295,144.1907991139451 69.83673469396308,142.4169081506261 69.80547112470958,142.05488849850371 69.77420755533967,141.29464602825465 69.64915327832568,140.60680620089988 67.52323056873865,137.3848019114812 66.46026921400335,137.09518211704562 65.86626139818691,136.66075198253384 65.74120712117292,136.3711315978435 65.64741641329601,135.93670057790587 65.61615284415893,135.6108769644925 65.55362570565194,135.21264769756817 63.49023013445549,134.37998506092117 63.11506730352994,133.87314597854856 62.92748588800896,133.5835233211692 67.39817629184108,133.51111761998618 69.27399044728372,133.90934879423003 70.71211463306099,133.29390042769955 72.08771168044768,133.40250904040295 73.74468085111585,133.3663061732368 73.40078158932738,131.84578241824056 73.1194094659295,131.08551810021163 73.05688232730608,130.79589317002683 72.83803734264802,130.071829811699 72.77551020414103,129.5649845827429 72.58792878850363,129.02193532060483 72.46287451160606,128.58749531320063 72.24402952659875,127.97203772657667 71.77507598791271,127.06695110321743 71.65002171078231,126.77732289672713 71.36864958750084,126.05325134727173 70.99348675634246,125.29297463197145 69.89926183247007,123.19315429788548 69.33651758579072,122.0708314429503 72.58792878850363,129.70979757903842 72.90056448115502,130.47006484141457 73.02561875828542,130.79589317002683 73.27572731231339,131.48375199353904 72.80677377339453,132.6422480539768 71.30612244899385,133.00427729811054 70.24316109425854,132.85946564463666 68.33608336944599,133.33010330228717 68.02344767691102,133.40250904040295 67.2418584455736,133.54732047242578 66.21016065997537,132.82326272211503 66.17889709083829,132.42503033045796 66.08510638284497,131.55615810802556 65.86626139818691,130.65108061640058 65.74120712117292,130.32525215504575 65.42857142863795,129.6373910882976 65.30351715150755,129.31156169707538 64.95961788971908,128.6236986675067 64.70950933569111,127.97203772657667 64.61571862793062,127.5737998963159 64.36561007390264,126.849729970505 64.27181936602574,126.48769445403013 64.08423795050476,125.87223322922364 63.99044724274427,125.51019671661197 63.83412939647678,125.03954869857989 63.959183673374355,125.40158569091 64.11550151987467,125.79982595634647 64.36561007390264,126.70491580816451 64.45940078166313,127.13935811794363 64.64698219718412,127.71861370443366 64.92835432046559,128.33407173023443 65.08467216673307,128.65990201800014 65.52236213639844,129.70979757903842 65.64741641329601,130.071829811699 65.8975249674404,130.72348690062063 66.24142422934528,131.37514279413153 66.58532349113375,132.20781247402192 66.64785062964074,132.533639208792 66.86669561453164,132.8956685635494 66.67911419889424,132.60604510919075 66.52279635262676,132.20781247402192 66.33521493710577,131.70097029270255 66.17889709083829,131.26653356157476 65.9913156752009,130.9769087790919 66.17889709083829,131.55615810802556 66.39774207561277,131.8819854403846 66.61658706038725,132.46123329357943 66.08510638284497,132.7508568658668 65.77247069042642,132.71465393231483 65.02214502810966,132.67845099503757 64.64698219718412,132.71465393231483 64.02171081199776,132.85946564463666 63.14633087266702,132.96807439025724 62.77116804162506,132.93187147876597 62.14589665667154,132.82326272211503 61.77073382551316,132.7870597958099 61.52062527136877,132.7870597958099 61.05167173256632,132.6422480539768 60.58271819364745,132.56984216082492 59.863656100817025,132.49743625309202 59.39470256189816,132.46123329357943 58.613113330327906,132.42503033045796 58.20668693014886,132.38882736346568 57.51888840645552,132.2440154593205 57.20625271380413,132.20781247402192 56.48719062085729,132.1354064923653 56.11202778981533,132.06300049598212 54.98653929657303,132.02679749231902 54.61137646541465,131.9905944848142 53.892314372584224,131.9905944848142 53.423360833665356,131.91818845889065 52.67303517158143,131.80957939242944 52.32913590979297,131.80957939242944 51.20364741643425,131.62856420764 50.54711246211082,131.55615810802556 50.17194963095244,131.55615810802556 49.421623968635686,131.66476725199027 48.67129830655176,131.66476725199027 47.88970907521434,131.66476725199027 47.608336951816455,131.70097029270255 46.88927485886961,131.73717332957312 46.48284845857415,131.73717332957312 45.79504993488081,131.77337636277662 45.51367781148292,131.77337636277662 44.794615718652494,131.80957939242944 44.41945288749412,131.84578241824056 43.856708640931174,131.84578241824056 43.450282240402885,131.8819854403846 42.66869300918188,131.91818845889065 41.918367347097956,131.91818845889065 41.57446808507666,131.91818845889065 40.91793313075323,131.95439147372963 40.386452453327365,132.02679749231902 39.69865392963402,132.06300049598212 39.35475466772914,132.09920349600725 38.7607468519127,132.09920349600725 38.07294832833577,132.02679749231902 37.7603126358008,132.02679749231902 36.69735128094908,132.02679749231902 36.447242726921104,132.06300049598212 35.696917064720765,132.02679749231902 33.28962223196868,132.46123329357943 33.00825010868721,132.46123329357943 32.28918801562395,132.42503033045796 31.570125922793522,132.35262439298094 31.288753799395636,132.35262439298094 30.44463742931839,132.38882736346568 30.00694745988585,132.38882736346568 29.194094659178518,132.46123329357943 28.818931828136556,132.46123329357943 28.19366044283379,132.49743625309202 27.912288319668733,132.49743625309202 27.28701693448238,132.56984216082492 26.442900564405136,132.6422480539768 26.06773773324676,132.60604510919075 25.50499348680023,132.6422480539768 25.223621363402344,132.6422480539768 24.942249240120873,132.60604510919075 24.160660008667037,132.60604510919075 23.754233608371578,132.60604510919075 23.066435084678233,132.6422480539768 22.785062961280346,132.67845099503757 22.284845853224397,131.77337636277662 22.409900130238384,131.411345864326 22.347372991847806,131.23033047674107 22.472427268861793,129.99942339473637 22.378636560984887,129.09434193687048 22.409900130238384,128.6236986675067 22.44116369949188,127.86342745352886 22.472427268861793,127.53759643514059 22.472427268861793,126.74111935435212 22.44116369949188,126.23426937311888 22.409900130238384,125.8360295946186 22.472427268861793,125.00334497902077 22.472427268861793,124.24306601646822 22.503690837998874,123.62760090266238 22.472427268861793,123.2655621022277 22.44116369949188,122.54148339445237 22.44116369949188,122.28805549800745 23.222752930945717,121.60017886778223 23.50412505422719,121.6363829341426 24.223187147290446,121.672586996865 24.535822839825414,121.672586996865 24.754667824483477,121.672586996865 25.50499348680023,121.6363829341426 25.91141988709569,121.6363829341426 26.66174554929603,121.672586996865 27.068171949707903,121.672586996865 27.630916196270846,121.672586996865 28.03734259668272,121.672586996865 28.693877551006153,121.672586996865 29.00651324354112,121.672586996865 29.56925749022048,121.672586996865 29.81936604436487,121.70879105583299 30.132001736783423,121.70879105583299 30.663482414209284,121.74499511119211 31.101172383874655,121.81740321076359 31.757707338314503,121.9260153323994 32.039079461595975,121.9622193654941 32.382978723500855,121.99842339506722 32.976986539317295,121.9622193654941 33.38341293949634,121.85360725497594 34.54016500222497,122.50527942035114 34.57142857136205,122.79491111004609 34.602692140615545,123.41037766670343 34.602692140615545,123.70000861849985 34.602692140615545,124.35167739650933 34.57142857136205,124.7137150899216 34.57142857136205,125.00334497902077 34.57142857136205,125.72741866853903 34.57142857136205,126.01704773114761 34.54016500222497,126.77732289672713 34.57142857136205,127.21176511791418 34.54016500222497,128.00824114345596 34.602692140615545,128.84091871543205 34.57142857136205,129.38396825431846 34.50890143297147,129.81840728758834 34.50890143297147,130.43386167526478 34.50890143297147,131.1579242957523 34.47763786360156,131.411345864326 33.28962223196868,132.38882736346568 32.53929656976834,132.38882736346568 32.10160660010297,132.38882736346568 31.288753799395636,132.35262439298094 30.91359096823726,132.35262439298094 30.194528875290416,132.46123329357943 29.881893182871863,132.46123329357943 29.56925749022048,132.49743625309202 28.91272253578063,132.49743625309202 28.600086843245663,132.533639208792 28.318714719847776,132.533639208792 27.630916196270846,132.56984216082492 27.25575336511247,132.6422480539768 26.974381241947412,132.67845099503757 26.255319148884155,132.71465393231483 25.973947025602683,132.7508568658668 25.286148501909338,132.67845099503757 25.00477637851145,132.67845099503757 24.348241424304433,132.71465393231483 24.03560573165305,132.67845099503757 23.410334346466698,132.71465393231483 23.191489361808635,132.7508568658668 22.691272253519855,132.71465393231483 22.347372991847806,132.60604510919075 22.347372991847806,132.60604510919075 21.72210160654504,132.7508568658668 21.346938775503077,132.7870597958099 21.096830221475102,132.7870597958099 20.44029526715167,132.85946564463666 19.721233174204826,132.96807439025724 18.970907511888072,133.04048020218033 18.65827181946952,133.07668310255394 18.033000434283167,133.07668310255394 17.532783325994387,133.11288599934778 16.751194094656967,133.11288599934778 16.438558402122,133.14908889238723 15.563178462907672,133.22149466740666 15.125488493358716,133.25769754932844 14.43768996966537,133.25769754932844 14.0,134.01795721877716 14.468953538802452,133.98175441421336 15.125488493358716,133.87314597854856 15.344333478133194,133.87314597854856 15.656969170551747,133.83694315937464 16.4072948328685,133.83694315937464 17.313938341336325,133.7645375097636 17.657837603008375,133.72833467938472 17.907946157152764,133.72833467938472 18.595744680729695,133.72833467938472 18.908380373497494,133.72833467938472 19.752496743341908,133.69213184539694 20.03386886662338,133.72833467938472 20.28397742076777,133.69213184539694 20.940512375207618,133.65592900771298 21.22188449848909,133.65592900771298 21.50325662177056,133.61972616630374 22.003473729942925,133.5835233211692 22.44116369949188,133.5835233211692 23.09769865393173,133.51111761998618 23.316543638589792,133.51111761998618 23.69170646974817,133.51111761998618 24.285714285681024,133.4749147638213 24.629613547585905,133.4749147638213 25.50499348680023,133.4749147638213 25.817629179218784,133.4749147638213 26.442900564405136,133.4387119039602 26.724272687803023,133.3663061732368 27.068171949707903,133.33010330228717 27.599652626900934,133.29390042769955 27.9435518886894,133.25769754932844 28.19366044283379,133.25769754932844 28.850195397273637,133.22149466740666 29.16283108992502,133.22149466740666 30.132001736783423,133.33010330228717 31.288753799395636,133.11288599934778 32.75814155454282,133.00427729811054 33.664785062894225,132.96807439025724 33.977420755662024,132.96807439025724 34.88406426401343,132.93187147876597 36.94745983497705,132.82326272211503 37.88536691281479,132.7508568658668 38.323056882363744,132.67845099503757 38.8858011290431,132.6422480539768 39.22970039083157,132.6422480539768 39.54233608348295,132.6422480539768 40.230134607176296,132.60604510919075 40.57403386896476,132.56984216082492 41.26183239254169,132.56984216082492 41.668258792953566,132.49743625309202 42.449848024290986,132.49743625309202 42.85627442470286,132.49743625309202 43.41901867138222,132.42503033045796 43.794181502540596,132.38882736346568 44.51324359537102,132.35262439298094 44.794615718652494,132.35262439298094 45.57620495010633,132.35262439298094 45.82631350401789,132.35262439298094 46.107685627415776,132.35262439298094 46.76422058173921,132.31642141882912 47.014329136000015,132.28021844098112 47.38949196704198,132.28021844098112 47.983499782858416,132.2440154593205 48.26487190613989,132.2440154593205 48.640034737298265,132.2440154593205 49.32783326099161,132.20781247402192 49.984368215315044,132.1354064923653 50.703430308261886,132.1354064923653 51.172383847180754,132.17160948502715 52.01650021702517,132.31642141882912 52.36039947893005,132.35262439298094 53.423360833665356,132.46123329357943 54.330004342249595,132.49743625309202 54.767694311682135,132.60604510919075 55.67433782014996,132.71465393231483 56.01823708205484,132.7508568658668 56.67477203649469,132.82326272211503 56.95614415977616,132.8956685635494 57.76899696059991,132.93187147876597 58.05036908376496,133.00427729811054 58.73816760745831,133.14908889238723 59.45722970040515,133.1852917817887 59.769865393056534,133.22149466740666 60.36387320898939,133.29390042769955 60.73903603979852,133.33010330228717 61.02040816319641,133.3663061732368 61.67694311775267,133.4749147638213 62.05210594867822,133.4749147638213 62.614850195357576,133.54732047242578 62.958749457262456,133.61972616630374 63.6778115502093,133.80074033638812 64.02171081199776,133.83694315937464 64.61571862793062,133.90934879423003 65.30351715150755,134.2351739682199 65.61615284415893,134.85062070415006 65.77247069042642,135.21264769756817 66.02257924445439,135.86429535638308 66.14763352146838,136.26252389262663 66.33521493710577,137.0227771315549 66.42900564474985,137.27619451624923 66.64785062964074,137.92783838979085 66.96048632217571,138.57948106792173 67.05427703005262,138.83289734230493 67.14806773781311,139.0501111477788 67.36691272258759,139.62934731328278 67.49196699948516,139.99136943701888 67.71081198449247,140.7516146962007 67.83586626150645,141.14983775423025 68.02344767691102,141.76527251116931 68.11723838478792,142.09109048027312 68.33608336944599,142.88753314694623 68.39861050818581,143.1771482193435 68.67998263135087,143.9373866613896 68.80503690836485,144.33560614837916 69.14893617015332,145.2768504343403 69.5240990013117,146.29049533806392 69.6178897091886,146.652510674292 69.93052540160716,147.37654024004587 70.05557967873756,147.73855446957168 70.4620060789166,148.53498447625316 70.587060356047,148.93319881000207 70.83716891007498,149.54862008450436 70.93095961783547,149.9106321008585 71.18106817186344,150.70705723849824 71.33738601813093,151.06906807454652 71.65002171078231,151.64828464499442 71.83760312630329,152.0102945220424 72.11897524958476,152.69811227225 72.24402952659875,153.0601210797322 72.52540164999664,153.67553520572255 72.65045592712704,153.96514148442657 72.9630916195456,154.68915614849539 73.088145896676,154.94256093233707 73.18193660443649,155.19596553550218 73.43204515846446,155.8475765423791 73.52583586634137,156.20958214087295 73.77594442025293,156.82499081196147 73.93226226652041,157.18699541472597 74.1511072514113,157.87480314372806 74.2448979591718,158.273007009906 74.49500651319977,158.85221183672547 74.74511506722774,159.21421437404933 74.99522362148855,159.72101730675786 75.3391228831606,160.5536205554672 75.62049500644207,161.603421870881 75.87060356070288,162.4360207087302 75.99565783760045,162.87041932786815 76.08944854536094,163.44961666074232 76.18323925312143,163.81161451432854 76.33955709950533,164.4270100191061 76.40208423801232,164.7528072076675 76.46461137651931,165.0062048145919 76.52713851502631,165.65779783125618 76.5896656535333,165.91119479277404 76.62092922267038,166.16459157358622 76.68345636129379,166.7437835369201 76.71471993054729,167.06957860145485 76.74598349968437,167.3953733672679 76.80851063830778,168.04696200287435 76.87103777669836,168.40895517301396 76.93356491543818,169.09674118031398 76.93356491543818,169.45873328109155 76.99609205382876,170.1827163763228 77.02735562308226,170.50850828786497 77.05861919233575,170.79810084743076 77.12114633095916,171.26868825341808 77.15240990009625,171.70307607503491 77.24620060785674,172.3908557066752 77.27746417722665,172.75284445172292 77.30872774636373,173.51301961627905 77.33999131561723,173.838808474713 77.43378202349413,174.59898131611408 77.46504559274763,174.85237190194312 77.52757273125462,175.54014543825178 77.5588363003917,175.86593243834795 77.65262700838502,176.62610094356933 77.65262700838502,176.9156885178527 77.65262700838502,177.1690774517483 77.7151541467756,177.7120531302935 77.74641771614552,177.96544149631518 77.8089448545361,178.29122627308243 77.9339991316665,178.39982113221777 77.84020842378959,178.11023476728587 77.87147199304309,177.6034580609703 77.87147199304309,177.56725969718536 78.27789839333855,177.49486295841052 79.27833260968328,175.7573368048179 79.24706904042978,175.4677482866682 79.12201476329938,174.6351799822878 78.9031697785249,173.40442326370976 78.8406426400179,172.10126444514026 78.746851932141,171.2324892442848 78.71558836312033,170.7619017904799 78.65306122449692,169.89312331518158 78.52800694748294,168.95194423681824 78.46547980897594,168.66235017261351 78.43421623972245,167.97456332456204 78.43421623972245,167.6849684638728 78.40295267035253,167.3953733672679 78.27789839333855,166.59898563456954 78.21537125494797,166.16459157358622 78.12158054707106,165.33200147229945 78.05905340856407,164.97000516756088 77.96526270080358,164.24601145178895 77.902735562413,163.88401404078468 77.74641771614552,163.23241777165094 77.65262700838502,162.97901889972854 77.5588363003917,162.61702019788208 77.40251845424064,161.92922164846095 77.27746417722665,161.56722187719424 77.12114633095916,160.95182141952682 77.02735562308226,160.5536205554672 76.83977420767769,159.90201817898196 76.74598349968437,159.61241673925542 76.46461137651931,158.85221183672547 76.37082066875882,158.45400861970847 76.15197568375152,157.73000162717653 75.74554928357247,156.89739176203148 75.55796786793508,156.53538686421234 75.30785931402352,155.88377711878275 75.12027789838612,155.4855705750815 75.4954407295445,154.14614528880338 75.90186712972354,154.0737437781354 76.62092922267038,154.00134225271177 76.93356491543818,153.96514148442657" stroke="#4dd2ff" stroke-linecap="round" stroke-linejoin="round" stroke-width="0.5"><title>2020-05-13 10.1km</title></polyline><polyline fill="none" points="125.7366150310263,121.47382661738084 129.79496534029022,118.86202161453548 130.21120639774017,118.66111281968188 130.28057990723755,118.2191131102445 135.69171365292277,117.0940207017702 138.4319672808051,116.81274709731224 139.26444939535577,117.45565789789543 140.6866063415073,117.77711290464504 141.13753415364772,117.61638543420122 142.6637513639871,117.17438455179217 143.9124745359877,117.05383877063286 146.99959571147338,116.81274709731224 147.83207782625686,116.89311100469786 148.80330696015153,116.89311100469786 150.2948374155676,117.13420262883301 151.12731953023467,116.73238317336654 151.50887383299414,116.57165527631878 152.4107294571586,116.53147329183412 152.86165726941545,116.49129130318761 153.62476587458514,116.7725651373039 156.19158572831657,114.0 157.82186320296023,118.05838582009892 157.89123671257403,118.86202161453548 158.34216452459805,120.95146700285841 158.37685127952136,120.91128546535037 157.3709353908198,123.68380193359917 157.09344135259744,123.28198916232213 155.53253738756757,124.60796975114499 154.87348904658575,124.48742624581791 154.66536851797719,124.40706388838589 154.4919347439427,121.91582267297781 154.35318772506434,121.55418957350776 154.11038044141605,121.15237462893128 153.8675731580006,120.87110392365139 153.59007911977824,120.58983301758417 151.12731953023467,126.65720369585324 150.05203013215214,128.46534243712085 148.66455994092394,129.83148620149586 148.28300563828088,130.0725699031609 147.97082484525163,130.1127505058248 147.72801756195258,128.3849808916275 147.4852102784207,128.50552320369752 147.17302948539145,128.6260654788639 146.54866789944936,128.82696918898728 146.27117386111058,128.90733064417145 145.68149902974255,129.14841491176048 145.4040049915202,129.30913767480524 145.12651095329784,129.46986037219176 144.6062096315436,129.83148620149586 144.0512215552153,130.03238929645158 143.42685996904038,130.31365345718223 143.14936593081802,130.47437574455398 142.87187189259566,130.6350979663548 142.24751030653715,130.95654221309815 141.9700162683148,131.11726423798245 141.58846196567174,131.27798619735404 140.82535336050205,131.71997124730842 140.51317256735638,131.84051253838697 139.75006396241952,132.1619558011007 138.9869553571334,132.5235791579471 138.53602754499298,132.7646612113458 137.8422924495535,133.16646430557012 137.56479841121472,133.32718542852672 136.87106331554241,133.68880771522527 136.66294278681744,133.72898794876528 136.24670172960032,133.88970884209266 135.552966633928,134.17097024750547 135.24078584089875,134.29151078828727 134.893918293179,134.41205129228183 134.37361697142478,134.69331232458353 134.0267494234722,134.934393049567 132.84739976096898,135.4567341139773 132.43115870363545,135.65763433871325 131.70273685327265,136.01925448529073 131.3558693054365,136.17997444368666 130.6621342097642,136.42105425844784 129.9683991142083,136.70231385575607 129.72559183079284,136.8228536217648 129.48278454726096,136.9032134451263 128.89310971600935,137.26483244766132 128.5809289229801,137.42555189778795 127.8178203178104,137.82735023615533 127.43626601528376,137.98806945659453 126.84659118403215,138.30950770078925 126.56909714569338,138.43004697479773 126.22222959785722,138.59076594925136 125.66724152152892,138.83184428804088 125.28568721900228,138.99256309849443 124.97350642585661,139.15328184355167 124.4878918590257,139.43453948933166 123.41260246071033,139.39435983786825 122.54543359123636,139.31400052274694 122.16387928859331,139.1934615194914 121.05390313570388,138.34968746296363 120.94984287128318,138.06842904220684 120.811095852172,137.66663094999967 120.56828856864013,137.10411293208017 120.42954154964536,136.70231385575607 120.0826740016928,136.01925448529073 119.94392698269803,135.73799440002767 119.73580645385664,135.01475325829233 119.63174618966877,134.77367258266895 119.4929991705576,134.41205129228183 119.25019188702572,133.72898794876528 119.18081837752834,133.44772622763412 119.11144486791454,133.20664459245745 118.8686375846155,132.5235791579471 118.79926407488529,132.20213619054994 118.69520381046459,131.8003321120632 118.41770977224223,130.99672272542375 118.31364950793795,130.67527851148043 118.14021573413629,129.9922086855513 118.0361554697156,129.5502216963214 117.86272169579752,128.86714991863118 117.75866143149324,128.54570396625786 117.65460116718896,128.14389615666005 117.4811673933873,127.34027930730372 117.37710712885018,127.05901302260463 117.20367335504852,126.33575593921705 117.16898660024162,125.85358381224796 116.99555282620713,125.09014340359136 116.89149256190285,124.68833206754061 116.64868527848739,123.88470816542394 116.57931176899001,123.60343941216706 117.2730468645459,122.27745544028585 117.65460116718896,122.11672980702133 118.24427599844057,121.87564123392804 118.66051705589052,121.71491543651791 119.31956539663952,121.47382661738084 120.39485479472205,121.03183006567997 121.19265015469864,120.75055927439826 121.50483094784431,120.67019615412573 122.33731306251138,120.50946986471536 122.71886736503802,120.42910669528646 123.44728921540082,120.34874350961763 123.82884351792745,120.26838030741783 124.4185183494119,120.06747223023558 124.73069914244115,119.98710897073033 124.97350642585661,119.90674569475232 125.8753620502539,121.63455251319101 125.8753620502539,121.99618553888286 125.91004880494438,123.16144525102573 126.36097661708482,122.79981329562725 126.32628986227792,122.03636696565081 126.32628986227792,121.63455251319101 126.25691635278054,120.95146700285841 126.25691635278054,120.63001458795043 126.22222959785722,120.22819870026433 126.77721767441835,119.18347547290614 127.08939846744761,119.18347547290614 127.85250707273372,119.10311203289893 128.16468786564656,119.06293030668166 129.4480977926869,118.86202161453548 130.072459378629,118.62093104844098 130.80088122899178,118.66111281968188 131.07837526721414,118.70129458679003 131.4252428150503,118.70129458679003 131.91085738188121,118.78165810887003 132.18835142022,118.78165810887003 132.53521896793973,118.78165810887003 133.33301432803273,118.82183986363816 134.47767723561265,119.02274857647717 135.20609908609185,118.82183986363816 135.5182798791211,118.78165810887003 136.14264146517962,118.70129458679003 136.55888252251316,118.66111281968188 137.56479841121472,118.58074927303824 138.15447324258275,118.46020392238279 138.5707142999163,118.37984033476096 139.29913615016267,118.2191131102445 139.57663018838502,118.2191131102445 139.99287124583498,118.2191131102445 140.61723283177707,118.1387494734081 140.92941362492274,118.09856764884898 141.24159441783559,118.09856764884898 141.9700162683148,118.01820398741984 142.5596910995664,117.9780221504916 143.9471612907946,117.93784030954703 144.32871559332125,117.89765846452792 145.05713744368404,117.85747661525966 145.61212552024517,117.89765846452792 146.02836657769512,117.9780221504916 146.7914751827484,118.05838582009892 147.17302948539145,118.09856764884898 147.79739107144997,118.09856764884898 148.24831888347398,118.05838582009892 148.9767407339532,117.93784030954703 149.39298179140314,117.77711290464504 150.12140364188235,117.61638543420122 150.50295794429258,117.61638543420122 151.23137979465537,117.57620355623658 151.50887383299414,117.53602167428471 152.27198243816383,117.4958397881419 152.65353674069047,117.4958397881419 152.93103077891283,117.53602167428471 153.62476587458514,117.4958397881419 153.90225991269108,117.53602167428471 154.31850097014103,117.57620355623658 155.56722414214164,117.45565789789543 156.26095923781395,117.45565789789543 156.6425135403406,117.45565789789543 157.47499565512408,118.37984033476096 157.89123671257403,120.63001458795043 157.9606102220714,120.91128546535037 158.0299837316852,121.19255614184658 158.099357241299,121.83545979077462 158.099357241299,122.15691122144926 158.27279101510067,123.00071997850318 158.41153803432826,123.4025330368313 158.37685127952136,123.60343941216706 158.44622478901874,123.80434568494093 158.44622478901874,124.04543307705899 158.48091154382564,124.12579550829832 158.61965856305324,125.41159217708628 158.82777909154538,126.29557495121844 158.86246584635228,126.6973846469773 158.82777909154538,127.50100280839251 158.8971526012756,128.224257751368 159.10527312988415,129.59040235215798 159.03589962027036,130.67527851148043 159.17464663949795,131.4387080911256 159.24402014899533,132.24231657580822 159.31339365860913,132.56375951040536 159.4174539229134,133.32718542852672 159.52151418710127,133.76916817828896 159.5908876969479,134.65313218944357 159.69494796113577,135.3361939297465 159.72963471582625,135.61745430197334 159.76432147074956,136.01925448529073 159.83369498024695,136.78267370385583 159.90306848986074,137.78717042069184 159.97244199947454,138.10860882903216 160.24993603758048,138.9523834020656 160.66617709503043,140.59974759587203 160.63149034022354,140.96136320385267 160.56211683072615,141.28279902096256 160.56211683072615,141.96584926111973 160.7008638496045,142.76943626216962 160.874297623639,143.09087060351158 160.90898437832948,143.53284239431378 160.90898437832948,143.8542761124845 160.9783578881761,144.29624704644084 161.01304464275017,144.6980383740738 161.01304464275017,145.46144076733617 161.18647841655184,146.22484168066876 161.29053868108895,146.58645212312695 161.18647841655184,147.71146026495262 161.25585192628205,147.9927117981715 161.35991219070274,148.27396313057397 161.6374062288087,148.91682256461354 161.77615324791986,149.23825188804767 161.98427377664484,149.92128832943854 162.05364728625864,150.3632524542918 162.36582807917148,151.40789295954164 162.36582807917148,151.72932024975307 162.43520158878528,152.4927090127312 162.46988834359217,153.17573980940506 162.57394860789645,153.89894759701565 162.67800887231715,154.2203728540917 162.81675589142833,155.02393484907225 162.85144264623523,155.46589324760134 163.7186115157092,155.58642726999824 164.447033366072,155.1444690070348 165.0713949520141,154.78286642284365 165.45294925477356,154.62215405658935 166.11199759563897,154.18019471134176 166.4241783885518,154.0194820992474 167.0485399744939,153.73823487010668 167.77696182508953,153.5373438692477 168.57475718506612,153.33645276588504 168.99099824228324,153.2159180547169 169.75410684756935,152.93467025164864 169.9969141309848,152.8141354175459 170.6906492265407,152.57306563845486 171.00283001968637,152.4927090127312 171.24563730310183,152.4123523705348 172.63310749433003,152.01056891362532 172.9106015325524,151.8498554159305 173.81245715683326,151.40789295954164 174.54087900719605,151.166822319763 174.81837304553483,151.08646540687187 175.5814816505881,150.76503759191837 175.85897568881046,150.60432358601247 176.10178297234233,150.52396655856865 176.76083131320775,150.20253828447312 177.0036385966232,150.1221811750147 177.24644588003866,150.00164547996246 178.21767501404975,150.48378803857486 178.18298825912643,150.92575153228245 178.3217352782376,151.72932024975307 178.35642203316092,152.3319957118365 178.35642203316092,152.69360054651042 178.35642203316092,153.4971656567941 178.4257955425419,153.93912576846196 178.4951690521557,154.5819759548176 178.5298558069626,154.8632225813053 178.59922931645997,155.18464705147198 178.73797633568756,155.90785114999744 178.84203659999184,156.1489188876294 178.98078361921944,156.91229908366222 179.05015712871682,157.19354404584737 179.08484388364013,157.4747888073034 179.18890414771158,158.23816643329337 179.2582776574418,158.72029890841804 179.36233792162966,159.3631412902614 179.60514520527795,160.52829043308157 179.60514520527795,160.769355342607 179.8132657337701,161.65325874832342 180.02138626249507,162.37645096855704 180.05607301741838,162.77822385029867 180.22950679122005,163.5014140047424 180.29888030071743,163.7826542617113 180.29888030071743,164.42548838068615 180.22950679122005,164.746905046748 180.26419354614336,165.30938358115964 180.4029405650217,165.75133043745882 180.68043460336048,166.6352226623858 180.85386837739497,167.11734485806664 181.06198890600353,167.96105728039402 181.09667566069402,168.2422943529382 181.13136241561733,168.56370790413348 181.2007359249983,169.28688743535895 181.33948294410948,170.09041869052453 181.4435432086466,170.41183073364664 181.58229022764135,171.25553609861527 181.61697698244825,171.53677081878413 181.72103724686895,172.21976858872222 181.82509751117323,172.62153142952593 181.9291577753611,173.38487969795824 181.9985312849749,174.02769814507337 181.963844530168,174.42945914174197 182.0332180398982,175.15262790309498 182.10259154939558,175.4740358152485 182.34539883292746,176.3177303368866 182.44945909723174,176.7596648412582 182.5882061162265,178.68810051228502 182.62289287114982,178.96932992548682 182.6922663806472,179.7728414282028 182.761639890261,180.05407006689347 182.93507366406266,180.81740393137443 183.00444717367645,181.25933338727918 183.17788094747812,182.0226649159158 183.2819412118988,182.625294025318 183.2819412118988,182.86634541090461 183.42068823101,183.83054947809433 183.42068823101,184.1519503093732 183.3860014762031,184.9554512402392 182.13727830420248,185.95982509895111 181.75572400155943,186.0 180.85386837739497,185.95982509895111 180.4723140745191,185.95982509895111 179.847952488577,185.95982509895111 179.57045845035464,185.91965019371128 179.1195306382142,185.91965019371128 178.18298825912643,186.0 177.9054942210205,185.95982509895111 177.52393991837744,185.91965019371128 176.8302048225887,185.87947528451332 176.55271078448277,185.79912545377738 175.82428893411998,185.79912545377738 175.47742138628382,185.79912545377738 175.16524059325457,185.79912545377738 174.57556576200295,185.7589505321812 173.74308364721946,185.79912545377738 173.4655896088807,185.8393003711535 172.73716775875073,185.7589505321812 172.35561345599126,185.7589505321812 171.4190710769035,185.79912545377738 171.07220352918375,185.7589505321812 170.51721545262262,185.8393003711535 169.54598631884437,185.87947528451332 168.74819095886778,185.7589505321812 168.4360101657221,185.71877560639405 167.60352805105504,185.63842574277078 167.25666050321888,185.59825080484734 167.0485399744939,185.55807586284936 166.4935518981656,185.63842574277078 166.21605785994325,185.63842574277078 165.93856382160448,185.63842574277078 165.00202144263312,184.433175821614 165.03670819744002,184.1117752197897 165.0713949520141,183.348447739525 165.0713949520141,183.02704625259503 165.1060817069374,182.74581973650493 165.1060817069374,182.0226649159158 165.0713949520141,181.74143768273643 165.03670819744002,181.46021024871152 165.1060817069374,180.73705306791817 165.00202144263312,179.69249035176472 164.9673346877098,179.37108588177944 164.93264793313574,178.80862742828322 164.9673346877098,178.36669522279408 164.93264793313574,177.16142305126414 164.93264793313574,176.1972026587755 164.93264793313574,175.87579533664393 165.00202144263312,174.87139576481422 165.00202144263312,174.59016342571704 165.00202144263312,173.94734589662403 165.00202144263312,173.50540823675692 165.00202144263312,173.18399871813017 165.03670819744002,172.5411788940837 165.03670819744002,172.05906333762687 165.00202144263312,171.29571249953005 164.9673346877098,170.8537718645821 164.93264793313574,170.21094823739259 164.9673346877098,169.80918293772265 164.9673346877098,169.04582773914444 165.00202144263312,168.56370790413348 165.00202144263312,167.84052704498754 165.00202144263312,167.5592896855669 165.03670819744002,166.7557532665669 165.1060817069374,165.87186131218914 165.1060817069374,165.63079952573753 165.7998168026097,164.46566547834664 166.11199759563897,164.42548838068615 166.87510620069224,164.10407145231147 167.36072076763958,163.90318573892 168.26257639192045,163.5014140047424 168.6788174493704,163.30052798386896 169.61535982834175,162.97911013750127 170.37846843362786,162.73804658051813 171.07220352918375,162.4969828761241 171.4537578317104,162.41662827512482 172.42498696560506,162.0952097074187 173.29215583507903,161.89432296925224 173.6390233830316,161.85414560942445 174.43681874289177,161.5729039752623 175.06118032883387,161.17112986382563 175.44273463159334,160.93006520022755 175.96303595323116,160.64882290622336 175.92834919830784,161.05059755052207 175.47742138628382,161.3318395576207 174.9224333097227,161.53272658254718 173.88183066633064,162.01485502437572 172.8065412681317,162.41662827512482 172.42498696560506,162.4969828761241 171.03751677437685,162.69786930672126 171.03751677437685,162.65769202882075 171.07220352918375,162.21574170095846 171.4537578317104,162.01485502437572 170.13566115009598,162.05503236796358 169.19911877112463,162.37645096855704 168.40132341103163,162.73804658051813 167.74227507016622,163.13981909351423 167.18728699383792,163.30052798386896 166.4241783885518,163.5014140047424 165.6610697832657,163.58176838437794 165.52232276427094,163.54159119655378 165.17545521643478,163.5014140047424 164.447033366072,162.45680557761807 164.48172012076247,162.13538704271195 164.447033366072,161.77379087728332 164.3429731016513,161.05059755052207 164.20422608265653,160.24704785217182 164.13485257304274,159.44349651422817 164.06547906354535,158.59976584490505 163.89204528951086,157.79621114608017 163.7532982706325,157.1131883628841 163.7186115157092,156.71140970176202 163.68392476101872,156.43016439513303 164.4123466112651,154.78286642284365 165.1060817069374,154.70251024793833 166.5282386528561,154.0596602584119 166.80573269119486,153.8587694215239 167.53415454144124,153.17573980940506 168.5400704301428,152.5328873276594 168.92162473266944,152.2114606933028 169.09505850670394,151.2070007699076 168.92162473266944,150.56414507434238 168.81756446848158,149.8007525729481 168.78287771355826,149.4391450821131 168.71350420394447,149.15789458176005 168.6094439397566,148.3944993543555 168.50538367545232,147.95253302005585 168.40132341103163,147.14895659583271 167.9850823536981,146.62663104070816 167.39540752244648,146.787346669822 166.90979295549914,146.98824111410067 166.11199759563897,147.309672011761 165.7651300478028,147.43020853083 164.68984064948745,147.8319966608833 164.23891283746343,147.95253302005585 163.54517774179112,148.07306934215012 163.26768370345235,148.11324810807128 163.0248764200369,148.15342686980148 161.84552675753366,146.8677044598444 161.6374062288087,146.0641258219257 161.6027194740018,145.74269390755217 161.4639724548906,144.73821748438058 161.39459894539323,144.29624704644084 161.29053868108895,143.61320084842737 161.22116517147515,143.3319461872452 161.18647841655184,143.01051204273244 161.08241815236397,142.24710489803692 161.01304464275017,141.56405514571816 160.9436711332528,141.2426195582375 160.874297623639,141.0819016659807 160.8396108688321,140.88100420846604 160.63149034022354,140.07741335371975 160.59680358541664,139.7157969341788 160.52743007580284,139.03274279093603 160.49274332122877,138.63094568264205 160.35399630200118,137.9478896576038 160.31930954707786,137.66663094999967 160.28462279238738,137.3853720414918 160.11118901858572,136.5817740529892 160.04181550897192,136.26033439842286 159.97244199947454,135.41655405663187 159.93775524455123,135.09511345077772 159.83369498024695,134.45223145201453" stroke="#4dd2ff" stroke-linecap="round" stroke-linejoin="round" stroke-width="0.5"><title>2020-11-03 10.1km</title></polyline><polyline fill="none" points="19.393173198448494,228.3928470435494 17.57269279391039,227.86575404545874 17.026548672583885,227.02240301278653 16.63969658652786,226.38988793242606 16.252844500588253,225.8100810824253 15.729456384317018,225.17756303524948 15.319848293205723,224.70317348418757 15.137800252763554,224.49233340416686 14.728192161768675,224.01794259535382 14.546144121326506,223.80710195645224 14.0,223.22728931240272 14.273072060663253,222.35756790766027 15.706700379145332,222.12037065293407 16.41213653597515,221.96223902894417 17.072060682578012,221.8304626015597 17.709228824125603,221.77775201183977 17.98230088490527,221.77775201183977 18.687737041618675,221.6986861070909 18.938053097343072,221.67233080009464 19.50695322372485,221.64597549047903 19.780025284504518,221.61962017818587 20.348925410886295,221.54055422500824 20.73577749670949,221.46148824770353 22.078381795086898,221.4087775827502 22.738305941806175,221.32971156507847 23.056890012463555,221.32971156507847 23.69405815412756,221.2770008732623 23.9898862199625,221.25064552330878 24.581542351283133,221.14522409654455 24.8546144120628,221.11886873317417 26.333754740771838,221.11886873317417 26.834386852104217,221.11886873317417 27.152970922878012,221.03980262682308 27.699115044204518,220.93438111417345 27.903919089701958,220.93438111417345 28.131479140371084,220.90802572926623 28.677623261581175,220.82895955842105 28.9734513272997,220.7498933634197 29.656131479074247,220.64447173243389 29.883691529626958,220.61811631795717 30.36156763578765,220.61811631795717 30.65739570162259,220.61811631795717 31.08975979767274,220.591760900832 31.408343868446536,220.61811631795717 31.97724399494473,220.61811631795717 32.65992414660286,220.64447173243389 33.1833122628741,220.64447173243389 33.45638432353735,220.67082714420394 34.43489254103042,220.77624876442133 35.18584070785437,220.93438111417345 35.754740834236145,221.01344725268427 36.664981036563404,220.90802572926623 37.21112515788991,220.9607364963449 37.55246523383539,221.03980262682308 38.462705436046235,221.25064552330878 38.82680151704699,221.19793481528177 40.010113779921085,221.03980262682308 40.32869785069488,221.06615799831343 40.80657395685557,221.11886873317417 41.147914032801054,221.14522409654455 41.71681415918283,221.25064552330878 42.35398230084684,221.38242224615533 43.150442477781326,221.4087775827502 43.355246523278765,221.35606690697023 43.833122629555874,221.32971156507847 44.493046776158735,221.30335622050916 44.993678887491114,221.35606690697023 45.69911504420452,221.51419890194666 46.58659924136009,221.56690954539226 47.31479140324518,221.6986861070909 47.610619468963705,221.64597549047903 48.06573957006913,221.61962017818587 48.33881163073238,221.64597549047903 48.771175726898946,221.67233080009464 49.044247787445784,221.61962017818587 49.52212389372289,221.64597549047903 50.113780025276355,221.75139671296347 50.31858407065738,221.8304626015597 51.91150442464277,221.88317318054033 52.38938053091988,221.88317318054033 53.04930467763916,221.85681789237424 53.36788874829654,221.90952846605796 53.8002528444631,221.98859430625453 54.09608091018163,222.09401538901147 55.27939317305572,222.22579168190714 55.55246523383539,222.1730811727757 55.962073324713856,222.19943642866565 56.166877370211296,222.27850218021194 56.66750948166009,222.41027837910224 56.9633375472622,222.4366336107778 57.805309734423645,222.4366336107778 58.39696586586069,222.51569928976824 58.965865992358886,222.51569928976824 59.147914032801054,222.48934406621265 59.807838179403916,222.5947649446316 60.012642224901356,222.5947649446316 60.30847029061988,222.5947649446316 60.740834386786446,222.62112015750608 60.945638432283886,222.64747536776122 61.10493046755437,222.62112015750608 61.49178255361039,223.30635474956944 61.40075853338931,223.46448555128882 61.1731984828366,223.93887737585464 61.05941845756024,224.1760729617381 60.740834386786446,224.72952848207206 60.58154235128313,224.88765841309214 60.17193426040467,225.41475748436642 59.762326169293374,225.94185548071982 59.64854614401702,226.1526943782519 59.21618204808328,226.91698394020204 59.12515802762937,227.1805315410311 58.852085966966115,227.65491654523066 58.69279393157922,228.1029460276186 58.53350189619232,228.6563931395067 58.10113780014217,229.89505619113334 57.87357774958946,230.15860075550154 57.600505688926205,230.55391709817923 57.50948166870512,230.71204346595914 57.25916561309714,231.16006764929625 57.12262958276551,231.4236109237827 56.91782553726807,231.84527960422565 56.75853350176476,232.0824679346406 56.48546144121792,232.58319813961862 56.34892541076988,232.76767744432436 56.00758533494081,233.29476044655894 55.91656131471973,233.50559334657737 55.68900126416702,233.90090457047336 55.39317319833208,234.16444505064283 55.825537294498645,233.97996674280148 56.235145385493524,233.42653102919576 56.37168141582515,233.13663565873867 56.50821744615678,232.63590652582934 56.91782553726807,231.89798814081587 57.16814159275964,231.4499652364466 57.281921618035994,231.239130659902 57.53223767364398,230.73839785114978 57.6687737039756,230.50120828740182 57.9190897597,230.0531829619722 58.16940581530798,229.76328380822088 58.51074589113705,229.31525720388163 58.67003792664036,229.05171177964075 58.92035398224834,228.60368394188117 59.05689001257997,228.3401377921109 60.28571428556461,228.18200997327222 60.604298356338404,228.287428529904 61.10493046755437,228.419201665296 61.37800252833404,228.4455562842486 61.764854614273645,228.57732933902298 61.94690265483223,228.6563931395067 62.379266750765964,228.78816608677153 62.62958280649036,228.814520668122 63.08470290759578,228.86722982279025 63.335018963203765,228.86722982279025 63.88116308453027,228.97264809999615 64.72313527169172,229.18348452530336 64.97345132741611,229.20983906643232 65.67888748412952,229.34161173147731 65.86093552457169,229.36796625636634 66.3388116308488,229.47338432940887 66.54361567622982,229.49973884088104 67.06700379250105,229.57880235929042 67.362831858336,229.65786585357273 67.81795195944142,229.76328380822088 68.09102402010467,229.84234724609996 68.29582806560211,229.86870171996998 68.75094816682395,229.9477651255147 69.02402022737078,229.97411958870362 69.20606826781295,230.02682850696146 68.91024020221084,229.36796625636634 68.65992414660286,229.34161173147731 68.13653603021521,229.28890267355018 67.81795195944142,229.26254814048298 67.362831858336,229.15712998155504 67.02149178239051,229.10442088605487 66.31605562567711,229.02535722244647 65.63337547401898,229.02535722244647 65.33754740818404,228.99900266254554 64.74589127674699,228.86722982279025 64.19974715542048,228.73545691592153 64.04045512003358,228.709102326422 63.42604298342485,228.57732933902298 63.08470290759578,228.49826551420847 62.515802781214006,228.3664924191835 62.24273072055075,228.3401377921109 61.53729456383735,228.20836461649742 61.08217446261551,228.0765913737123 60.604298356338404,227.99752739572432 60.0581542350119,227.9448180636682 59.62579013896175,227.1805315410311 59.9898862199625,226.60072646458866 60.14917825523298,226.3371782725444 60.35398230084684,226.12633952547912 60.649810366448946,225.731016411155 60.740834386786446,225.57288699614583 61.0139064474497,224.9403683686105 61.19595448789187,224.65046348024043 61.582806573831476,224.14971790736308 61.65107458899729,224.0970077906386 61.94690265483223,223.51719579703058 62.19721871044021,223.09551353016286 63.47155499365181,222.5420545107918 63.76738305937033,222.64747536776122 64.22250316035934,222.77925137846614 64.76864728180226,222.8319617640518 65.29203539818991,222.8319617640518 65.5195954486262,222.8319617640518 66.06573956995271,222.8583169526537 66.36156763578765,222.91102732202853 66.7939317318378,222.96373768063495 67.0442477875622,222.93738250271417 67.72692793910392,222.91102732202853 67.95448798977304,222.88467213869444 68.43236409593374,222.88467213869444 68.75094816682395,222.8583169526537 69.52465233870316,222.8319617640518 69.84323640959337,222.8583169526537 70.2983565106988,222.91102732202853 70.86725663708057,223.01644802850205 71.77749683929142,223.12186869198922 72.16434892534744,223.09551353016286 72.59671302139759,223.09551353016286 73.37041719327681,223.17457900758018 74.64475347660482,223.22728931240272 75.2136536029866,223.25364446084131 75.6005056889262,223.27999960657326 76.19216182036325,223.33270988988806 76.53350189619232,223.38542016249266 77.05689001246355,223.46448555128882 77.37547408335377,223.54355091587058 77.78508217434864,223.67532646970358 78.12642225017771,223.75439176976215 78.62705436139368,223.8861672161729 78.92288242722861,223.9915875249426 79.90139064460527,224.33420323135215 80.40202275593765,224.33420323135215 80.60682680143509,224.4132683298667 80.83438685187139,224.465978382068 81.56257901375648,224.70317348418757 81.79013906430919,224.78223846980836 82.54108723124955,224.99307831330225 83.97471554973163,225.49382225231966 84.2477876105113,225.6255968118785 84.68015170656145,225.7573713042948 84.99873577733524,225.7573713042948 85.18078381789383,225.7573713042948 85.61314791394398,225.8100810824253 86.0,225.6519517157285 85.86346396955196,225.23027293168707 85.2035398229491,224.78223846980836 84.27054361556657,224.54504344030283 84.04298356501386,224.465978382068 83.22376738290768,224.2814931522007 83.01896333741024,224.20242801337736 82.58659924136009,224.0970077906386 82.29077117564157,224.01794259535382 81.76738305937033,223.8598121323157 81.44879898848012,223.75439176976215 80.92541087220889,223.62261625626707 80.58407079637982,223.54355091587058 80.06068267999217,223.41177529474953 79.62831858394202,223.25364446084131 79.44627054349985,223.17457900758018 78.94563843216747,222.99009285593638 78.7635903917253,222.93738250271417 78.55878634634428,222.91102732202853 78.0581542350119,222.75289618165698 77.71681415906642,222.6738305753097 77.21618204796687,222.56840972902137 76.96586599235889,222.5947649446316 76.3969658658607,222.56840972902137 76.19216182036325,222.5420545107918 75.62326169398148,222.51569928976824 75.41845764848404,222.51569928976824 74.8950695322128,222.4629888398631 74.64475347660482,222.4629888398631 74.16687737032771,222.41027837910224 73.89380530954804,222.41027837910224 73.39317319833208,222.38392314469093 73.09734513261355,222.41027837910224 72.57395701634232,222.27850218021194 72.02781289501581,222.25214693238377 71.77749683929142,222.25214693238377 70.63969658641145,222.19943642866565 70.38938053080346,222.19943642866565 69.77496839431114,222.14672591423732 69.41087231331039,222.12037065293407 68.72819216176867,222.06766012235312 68.40960809087846,222.01494958094554 67.88621997460723,221.90952846605796 67.61314791394398,221.88317318054033 67.02149178239051,221.85681789237424 66.81668773689307,221.8304626015597 66.29329962050542,221.80410730806761 66.11125158017967,221.80410730806761 65.9292035397375,221.80410730806761 65.5195954486262,221.75139671296347 65.31479140324518,221.6986861070909 65.08723135257605,221.67233080009464 64.72313527169172,221.61962017818587 64.47281921596732,221.61962017818587 64.29077117552515,221.59326486312784 63.858407079591416,221.56690954539226 63.6991150440881,221.56690954539226 63.40328697836958,220.82895955842105 63.562579013756476,220.591760900832 63.83565107441973,220.1173629325931 63.972187104751356,219.85380812955555 64.22250316035934,219.4584754210082 64.33628318575211,219.22127550566802 64.5865992414765,218.7995862297248 64.74589127674699,218.53603008278878 65.04171934246551,218.00891698271153 65.29203539818991,217.35002409585286 65.40581542334985,217.1128222453408 65.65613147895783,216.71748534412473 65.79266750940587,216.4275712320814 66.04298356501386,215.97952151030768 66.22503160545602,215.71596248750575 66.56637168128509,215.26791153202066 67.362831858336,214.45087543688715 67.43109987338539,214.34545123644057 66.3388116308488,215.00435178351472 66.20227560040075,215.26791153202066 65.95195954479277,215.7950302225945 65.58786346379202,216.6911295291502 65.45132743346039,216.95468755738693 65.04171934246551,217.48180280759698 64.63211125147063,217.92984992501442 64.45006321102846,218.2724736672244 63.92667509475723,219.03678653211682 63.562579013756476,219.48483095376287 63.31226295826491,219.88016362197232 63.1529709227616,220.0910074643616 63.06194690254051,220.27549568543327 62.675094816600904,220.98709187586792 62.56131479132455,221.14522409654455 62.42477876099292,221.35606690697023 61.78761061944533,221.67233080009464 60.67256637162063,221.56690954539226 60.012642224901356,221.4087775827502 59.69405815412756,221.38242224615533 59.12515802762937,221.35606690697023 58.80657395697199,221.32971156507847 58.237673830473796,221.32971156507847 57.6687737039756,221.38242224615533 57.12262958276551,221.35606690697023 56.82680151704699,221.35606690697023 56.30341340054292,221.32971156507847 55.825537294498645,221.35606690697023 54.869785082060844,221.25064552330878 54.34639696578961,221.2242901706486 53.572692793793976,221.14522409654455 53.231352718081325,221.06615799831343 52.480404551140964,220.98709187586792 51.979772439808585,220.90802572926623 51.20606826792937,220.8026041627163 49.88621997460723,220.90802572926623 49.567635903833434,220.90802572926623 49.11251580272801,220.90802572926623 48.81668773700949,220.88167034165235 48.29329962062184,220.85531495136092 47.88369152962696,220.82895955842105 47.72439949424006,220.7498933634197 47.292035398073494,220.7235379597696 46.268015170586295,220.64447173243389 46.040455120033585,220.67082714420394 45.49431099870708,220.7235379597696 45.198482932988554,220.69718255329644 44.65233881154563,220.67082714420394 44.40202275593765,220.64447173243389 43.92414664966054,220.64447173243389 43.65107458899729,220.61811631795717 43.19595448789187,220.61811631795717 42.92288242734503,220.5654054810293 42.718078381731175,220.5654054810293 42.19469026545994,220.5126946333039 41.989886219846085,220.4599837748101 41.76232616917696,220.4599837748101 41.30720606818795,220.40727290554787 41.0341340075247,220.38091746694408 40.14664981025271,220.32820658150013 39.94184576487169,220.30185113483458 39.28192161815241,220.32820658150013 38.98609355231747,220.32820658150013 38.462705436046235,220.2491402333544 38.16687737032771,220.222784778598 37.98482932988554,220.222784778598 37.37041719327681,220.1700738609652 37.05183312250301,220.1173629325931 36.43742098601069,220.06465199348168 36.14159292029217,220.06465199348168 35.95954487985,220.0910074643616 35.68647281907033,220.06465199348168 35.208596713026054,220.06465199348168 34.98103666235693,220.06465199348168 34.41213653597515,219.9592300830118 34.23008849553298,219.90651911162422 33.752212389255874,219.85380812955555 33.251580278156325,219.82745263443212 33.04677623254247,219.80109713668935 32.54614412121009,219.74838613308384 32.0682680150494,219.77474163621082 31.81795195955783,219.80109713668935 31.590391908888705,219.80109713668935 31.0442477875622,219.85380812955555 30.83944374206476,219.88016362197232 30.702907711733133,219.90651911162422 30.31605562567711,219.93287459868588 30.04298356513027,219.93287459868588 29.860935524571687,219.9592300830118 29.360303413239308,220.01194104366004 29.132743362686597,220.01194104366004 28.58659924136009,220.01194104366004 28.040455120033585,220.0910074643616 27.812895069480874,220.1173629325931 27.221238938043825,220.1700738609652 26.9936788873747,220.19642932116403 26.78887484187726,220.222784778598 26.834386852104217,220.2491402333544 26.879898862098344,220.67082714420394 27.49431099870708,221.11886873317417 27.97218710486777,221.03980262682308 28.199747155420482,221.01344725268427 28.76864728180226,220.90802572926623 29.018963337526657,220.82895955842105 29.74715549929533,220.69718255329644 30.020227559958585,220.69718255329644 30.68015170667786,220.7235379597696 30.930467762285843,220.7235379597696 31.47661188361235,220.67082714420394 32.0682680150494,220.69718255329644 32.31858407065738,220.69718255329644 32.88748419703916,220.7235379597696 33.41087231354322,220.82895955842105 33.95701643486973,220.85531495136092 34.275600505643524,220.85531495136092 35.02654867246747,221.75139671296347 34.95828065730166,222.41027837910224 34.9355246523628,222.64747536776122 34.8445006320253,223.30635474956944 34.75347661180422,223.83345704572275 34.730720606748946,224.0970077906386 34.639696586411446,224.54504344030283 34.59418457641732,225.01943328164634 34.525916561251506,225.25662787581678 34.45764854608569,225.8100810824253 34.38938053091988,226.12633952547912 34.86725663708057,227.47043359148665 35.117572692688555,227.4967883072677 35.68647281907033,227.47043359148665 36.18710493040271,227.4967883072677 36.505689001176506,227.54949773068074 37.14285714284051,227.62856184563134 37.46144121361431,227.68127124221064 38.030341339996085,227.73398062799242 38.462705436046235,227.86575404545874 39.054361567483284,228.0238820577797 39.23640960804187,228.05023671712843 39.395701643428765,228.05023671712843 39.7597977243131,228.12930067881825 39.94184576487169,228.18200997327222 40.14664981025271,228.20836461649742 40.7838179518003,228.3664924191835 41.07964601763524,228.4455562842486 41.62579013907816,228.57732933902298 41.85335018951446,228.6300385420327 42.44500632106792,228.78816608677153 42.695322376675904,228.8408752468531 42.99115044251084,229.52609334970475 42.83185840700753,229.76328380822088 42.718078381731175,229.92141065970645 42.490518331178464,230.36943621351384 42.44500632106792,230.5275626941584 42.35398230084684,230.73839785114978 42.12642225029413,231.26548499127966 42.0581542350119,231.4499652364466 41.76232616917696,231.9243424051674 41.64854614401702,232.13517642288934 41.375474083353765,232.60955233409186 41.28445006313268,232.79403161996743 40.98862199729774,233.40017691801768 40.943109987303615,233.53194744692883 40.92035398236476,233.66371790866833 40.69279393169563,233.97996674280148 40.37420986092184,234.42798526200932 40.26042983564548,234.6388172376901 40.010113779921085,235.1131885543582 39.85082174453419,235.376727798488 39.577749683870934,235.79839003024972 39.418457648484036,235.9565131898853 39.09987357771024,236.3518206657318 38.94058154232334,236.5890048610454 38.55372945626732,237.06337259884458 38.32616940571461,237.3269098548626 37.8482932994375,237.93304452387383 37.415929203503765,238.38105619195267 37.18836915283464,238.69729925482534 36.869785082060844,239.17166312379413 36.43742098601069,239.54061219791765 36.25537294545211,239.67237959674094 35.80025284434669,240.01497451934847 35.54993678885512,240.1730950997444 35.09481668763328,240.59474950804724 34.75347661180422,240.88463651470374 34.54867256630678,241.04275656316895 34.41213653597515,241.14816987511585 33.979772439925,241.4117029667832 33.251580278156325,241.96512158491532 33.09228824265301,242.07053452081163 32.932996207266115,242.17594741363428 32.523388116271235,242.49218583412585 32.31858407065738,242.62395172857214 31.9089759796625,242.86113016915624 31.65865992405452,242.96654273971217 31.20353982283268,243.23007397772744 30.771175726898946,243.44089877480292 30.293299620621838,243.70442952925805 29.90644753468223,243.83619480583002 29.31479140324518,244.12607817776734 29.132743362686597,244.23149023239966 28.131479140371084,244.70584394648904 27.53982300881762,244.75854986099876 27.33501896332018,244.78490281419363 27.130214917706326,244.81125576476916 26.35651074582711,245.07478512235684 25.309734513168223,245.57549016180565 25.03666245250497,245.60184303167625 24.831858406891115,245.65454876355943 24.21744627051521,245.28560841505532 24.012642224901356,244.73219690506812 23.87610619456973,244.49502018105704 23.716814159299247,244.07337213426945 23.648546144133434,243.78348870328045 23.420986093464307,243.23007397772744 23.23893805302214,242.8874833159207 22.94310998742003,242.12324097254896 22.715549936750904,241.2799364545208 22.62452591652982,240.96369655107264 22.487989886198193,240.48933597045834 22.374209860921837,240.14674167643534 22.19216182047967,239.54061219791765 22.101137800258584,239.25072368403198 22.010113779921085,238.96083484511473 21.896333754761145,238.72365282598184 21.805309734423645,238.4337633959658 21.600505688926205,237.88033721779357 21.418457648484036,237.24784870623262 21.07711757265497,235.9565131898853 20.9633375472622,235.56120510958135 20.84955752210226,235.2976660534623 20.66750948166009,234.66517122258665 20.644753476488404,234.4543392683845 20.439949430990964,233.82184237410547 20.37168141582515,233.53194744692883 20.189633375382982,233.03121907977038 20.098609355045483,232.8467399631336 19.893805309664458,232.42507291646325 19.802781289443374,232.24059336725622 19.73451327427756,232.0824679346406 19.55246523383539,231.63444534988957 19.461441213497892,231.31819364620605 19.27939317317214,230.87016973696882 19.165613147895783,230.5275626941584 18.960809102281928,230.02682850696146 18.938053097343072,229.9477651255147 18.847029077121988,229.76328380822088 18.80151706689503,229.65786585357273" stroke="#4dd2ff" stroke-linecap="round" stroke-linejoin="round" stroke-width="0.5"><title>2020-12-12 11.6km</title></polyline></svg>