<?xml version="1.0" encoding="utf-8" ?>
<svg baseProfile="full" height="200mm" version="1.1" viewBox="0,0,200,200" width="200mm" xmlns="http://www.w3.org/2000/svg" xmlns:ev="http://www.w3.org/2001/xml-events" xmlns:xlink="http://www.w3.org/1999/xlink"><defs /><rect fill="#1a1a1a" height="200" width="200" x="0" y="0" /><text alignment-baseline="middle" fill="#e1ed5e" style="dominant-baseline: central; font-size:9.0px; font-family:Arial;" text-anchor="middle" x="100.0" y="100.0">2019</text><line stroke="#e1ed5e" stroke-width="0.3" x1="100.0" x2="100.0" y1="15.0" y2="10.0" /><path d="M 100.0 14.0 a86.0,86.0 0 0,1 42.46469731375804,11.215312516191453" fill="none" id="id13" stroke="none" /><text fill="#e1ed5e" style="font-size:6.75px; font-family:Arial;" text-anchor="middle"><textPath startOffset="22.20632615414155" xlink:href="#id13">January</textPath></text><path d="M 106.74666289553966 80.11325718540242 l 9.486194138162976 -27.961898502400352 a50.52720181604509,50.52720181604509 0 0,0 0.8212306316258586,0.28651124208811135 l -9.966106773852108 27.794466407140032" fill="#b7ff1f" stroke="none" /><path d="M 107.4271985657038 80.35727306442388 l 6.8086652925616375 -18.006890748160494 a40.251130810482834,40.251130810482834 0 0,0 0.6459670814730148,0.2506251919107923 l -7.11761553903432 17.887022852359156" fill="#ffbf11" stroke="none" /><path d="M 109.73455568895987 81.39251694778311 l 14.145880073424056 -27.03967516703946 a51.51638832153481,51.51638832153481 0 0,0 0.7822026476805922,0.41782556499780815 l -14.609227767632959 26.7921708755399" fill="#abff21" stroke="none" /><path d="M 110.36928655335952 81.73862282372117 l 15.692642638981917 -27.63635324844596 a52.780922797610565,52.780922797610565 0 0,0 0.7861926245041853,0.45541351333541863 l -16.16603199595143 27.36213557772049" fill="#9bff22" stroke="none" /><line stroke="#e1ed5e" stroke-width="0.3" x1="143.23703022742887" x2="145.7803849466894" y1="26.81831364943548" y2="22.513508569990506" /><path d="M 143.74570117128098 25.957352633546492 a86.0,86.0 0 0,1 28.547481713284135,27.462654790039103" fill="none" id="id14" stroke="none" /><text fill="#e1ed5e" style="font-size:6.75px; font-family:Arial;" text-anchor="middle"><textPath startOffset="19.985693538727396" xlink:href="#id14">February</textPath></text><path d="M 110.99172775467656 82.1063720568725 l 16.453556204061655 -26.785035039787505 a52.434974373185995,52.434974373185995 0 0,0 0.7650034235140657,0.479045073622959 l -16.912178779947983 26.497845624841602" fill="#9fff22" stroke="none" /><path d="M 111.60114157652 82.49532879139004 l 17.476092596665243 -26.369237277044977 a52.6346406178467,52.6346406178467 0 0,0 0.7509091067002679,0.5070171808300454 l -17.92740639777205 26.064508183916264" fill="#9dff22" stroke="none" /><path d="M 112.19680574252982 82.90503203632743 l 18.19958087574583 -25.508420695614955 a52.335351768207275,52.335351768207275 0 0,0 0.7288437497563925,0.5295359804689129 l -18.63596994185601 25.19136548032937" fill="#a1ff22" stroke="none" /><path d="M 112.77801427241765 83.33499621200491 l 19.409325481800824 -25.31351709121556 a52.89821410652554,52.89821410652554 0 0,0 0.7178223290745697,0.5602717137518123 l -19.842180366034825 24.975666988240523" fill="#9aff23" stroke="none" /><path d="M 113.34407831869373 83.78471172551755 l 20.644405019465005 -25.086406917804062 a53.48875606503517,53.48875606503517 0 0,0 0.7059050286122284,0.5911751607209041 l -21.07316758503635 24.72733059968934" fill="#93ff23" stroke="none" /><path d="M 114.42810811169701 84.74124197986012 l 21.821119255491563 -23.07739697197196 a52.76047066030926,52.76047066030926 0 0,0 0.6545231753288485,0.6296507760883258 l -22.215125674432834 22.698363109121335" fill="#9bff22" stroke="none" /><path d="M 114.94478906791727 85.2469230424477 l 23.20006865607896 -22.90245762239651 a53.6000882022188,53.6000882022188 0 0,0 0.6425265556744689,0.6621800953013076 l -23.59085947545654 22.499713331545088" fill="#91ff24" stroke="none" /><path d="M 115.4437574822437 85.77008943001954 l 15.060425576852674 -13.876707747506337 a41.47875573528872,41.47875573528872 0 0,0 0.47928970754770917,0.5292436660379914 l -15.29705892501642 13.615411294198799" fill="#ffd013" stroke="none" /><path d="M 115.9244219780498 86.31012108654704 l 24.094633657776203 -20.713632035977987 a52.77429658110995,52.77429658110995 0 0,0 0.586270632050289,0.6939595090710834 l -24.44761490331361 20.295813577277798" fill="#9bff22" stroke="none" /><path d="M 116.38621287248628 86.86637796730983 l 26.052377064222977 -20.881095349929666 a54.387819541103696,54.387819541103696 0 0,0 0.5792197097980811,0.7355502107610962 l -26.40795085461502 20.42955274521553" fill="#88ff25" stroke="none" /><path d="M 116.82858285166822 87.43820079747576 l 25.642662267214124 -19.141123008284534 a52.9988862020022,52.9988862020022 0 0,0 0.5394211179287411,0.7357697986411577 l -25.968345997656492 18.696890765971883" fill="#99ff23" stroke="none" /><path d="M 117.2510076193507 88.02491185347247 l 25.9410970504959 -18.007465456618124 a52.578621381474875,52.578621381474875 0 0,0 0.509700997244529,0.7479233196567165 l -26.247222513409163 17.558264113691003" fill="#9eff22" stroke="none" /><path d="M 117.65298651832404 88.62581576622439 l 26.521806603191735 -17.088548399679457 a52.550352009213654,52.550352009213654 0 0,0 0.48339418170195114,0.7646135080886535 l -26.81202838113964 16.629487243876596" fill="#9eff22" stroke="none" /><line stroke="#e1ed5e" stroke-width="0.3" x1="172.23445277983987" x2="176.4835382374775" y1="55.19839476539836" y2="52.563006222186495" /><path d="M 173.08426987136738 54.67131705675599 a86.0,86.0 0 0,1 12.851231095245387,41.99856678651699" fill="none" id="id15" stroke="none" /><text fill="#e1ed5e" style="font-size:6.75px; font-family:Arial;" text-anchor="middle"><textPath startOffset="22.20632615414155" xlink:href="#id15">March</textPath></text><path d="M 118.21658344932153 89.55222093294921 l 27.19329775533731 -15.596204845034976 a52.348318110844886,52.348318110844886 0 0,0 0.4415764068823328,0.7855151554241095 l -27.45773180351208 15.125806179676072" fill="#a0ff22" stroke="none" /><path d="M 118.56541770881063 90.18545643968196 l 27.863951474067303 -14.730181124609954 a52.51790011585469,52.51790011585469 0 0,0 0.41561807569020387,0.80284183365695 l -28.113378982917624 14.248366568692658" fill="#9eff22" stroke="none" /><path d="M 118.89224826269711 90.83032412892265 l 28.962554021610757 -14.057471037003175 a53.19381970830589,53.19381970830589 0 0,0 0.39272694685865384,0.8271831079427137 l -29.200239162311167 13.55684551341992" fill="#96ff23" stroke="none" /><path d="M 119.196687751892 91.48605970444005 l 30.053068318643394 -13.328863430520489 a53.87621504544758,53.87621504544758 0 0,0 0.36869107716877886,0.8509898389052907 l -30.278050105654856 12.809574447028595" fill="#8eff24" stroke="none" /><path d="M 119.34039704204932 91.81776055985345 l 29.311961428383242 -12.400856422229802 a52.82722612455859,52.82722612455859 0 0,0 0.34709578795942847,0.8405199819346966 l -29.521078903228865 11.894461869841804" fill="#9bff22" stroke="none" /><path d="M 119.61058180528143 92.48833698450437 l 29.408166563543105 -11.26454275157758 a52.49174787196185,52.49174787196185 0 0,0 0.3159388605974074,0.8465590714820577 l -29.597710012642136 10.75666054306619" fill="#9fff22" stroke="none" /><path d="M 119.85752413597 93.16781622104841 l 30.84101961814106 -10.61116746068596 a53.61541607837132,53.61541607837132 0 0,0 0.29274708109993364,0.8752765109370054 l -31.019103993012763 10.07871784682664" fill="#91ff24" stroke="none" /><path d="M 120.18372546131832 94.20196356495316 l 30.41556886121399 -8.737265911982758 a52.64564179737782,52.64564179737782 0 0,0 0.2427045046671716,0.8731372362991175 l -30.561460136447526 8.21241737226469" fill="#9dff22" stroke="none" /><path d="M 120.37134235888165 94.90015583598534 l 30.753041125848355 -7.698840584404679 a52.70207697978473,52.70207697978473 0 0,0 0.21273368981024202,0.8819184844247236 l -30.88100761591942 7.168336868320549" fill="#9cff22" stroke="none" /><path d="M 120.53481517161879 95.60439243477599 l 31.024981697333082 -6.641094313243017 a52.72780520296419,52.72780520296419 0 0,0 0.18233953993791185,0.889152353306816 l -31.134700533185992 6.106066303772789" fill="#9cff22" stroke="none" /><path d="M 120.67395015179393 96.31383870115 l 31.058979493444678 -5.537810014530621 a52.548812131857716,52.548812131857716 0 0,0 0.15111071161744802,0.8918639738531063 l -31.149702066582346 5.002360252361677" fill="#9eff22" stroke="none" /><path d="M 120.73433829027371 96.67025291283417 l 30.99854237071399 -4.978085373174882 a52.39571568051234,52.39571568051234 0 0,0 0.13534089450942177,0.8917273948127228 l -31.079639158662715 4.443758865970077" fill="#a0ff22" stroke="none" /><path d="M 120.83666639777658 97.38593545837742 l 31.264987281142677 -3.922349817657827 a52.51006597552747,52.51006597552747 0 0,0 0.10479420613298156,0.8978127614042019 l -31.327871840279247 3.383593317928772" fill="#9eff22" stroke="none" /><path d="M 120.94382443527127 98.46500227214037 l 31.46729936527496 -2.3062756841215055 a52.55170101397077,52.55170101397077 0 0,0 0.05835593377897412,0.902740466613073 l -31.50233589005835 1.7642761532553974" fill="#9eff22" stroke="none" /><path d="M 120.98425023603335 99.18683210126433 l 33.103042871650025 -1.282787400594054 a54.127888415614756,54.127888415614756 0 0,0 0.028064808930474455,0.9313343781623895 l -33.12021937503614 0.7127828750066656" fill="#8bff24" stroke="none" /><line stroke="#e1ed5e" stroke-width="0.3" x1="184.98032266829074" x2="189.97916517819016" y1="98.17113171792111" y2="98.06355123074" /><path d="M 185.9800911702706 98.14961562048488 a86.0,86.0 0 0,1 -9.607161424134198,41.387399972396054" fill="none" id="id16" stroke="none" /><text fill="#e1ed5e" style="font-size:6.75px; font-family:Arial;" text-anchor="middle"><textPath startOffset="21.466115282336823" xlink:href="#id16">April</textPath></text><path d="M 120.99980553446 99.90962569577887 l 31.39844715932734 -0.1351256710921297 a52.398737919923775,52.398737919923775 0 0,0 -0.003881755171840317,0.9019831958162675 l -31.396121106865998 -0.4053670029278225" fill="#a0ff22" stroke="none" /><path d="M 120.9904718944345 100.63252640178507 l 34.85183941092059 1.050224534686413 a55.86765954144119,55.86765954144119 0 0,0 -0.037239432198824,0.9609842753544577 l -34.82859784587056 -1.649986057054877" fill="#77ff27" stroke="none" /><path d="M 120.9764740272857 100.99374915477107 l 32.29962371242032 1.5301772701117045 a53.33584906016713,53.33584906016713 0 0,0 -0.0513386732389485,0.9166864980513831 l -32.26849868829384 -2.085935484498511" fill="#94ff23" stroke="none" /><path d="M 120.89721153311464 102.0752229133903 l 34.440665207983926 3.420171991787256 a55.610070737024515,55.610070737024515 0 0,0 -0.1027930933035712,0.9517363791968352 l -34.376689813179304 -4.012504692868883" fill="#7aff26" stroke="none" /><path d="M 120.76222939487914 103.15116336523771 l 33.15021185090782 5.031335081974108 a54.529850558378165,54.529850558378165 0 0,0 -0.14883596994987397,0.926801726952893 l -33.058694126596656 -5.601216038620206" fill="#86ff25" stroke="none" /><path d="M 120.70491114924044 103.5080841355445 l 33.124322913724754 5.612335685804373 a54.596414694768605,54.596414694768605 0 0,0 -0.1649684165670507,0.9252304889076918 l -33.02280805481851 -6.181684925445284" fill="#85ff25" stroke="none" /><path d="M 120.5718875245553 104.21870165774334 l 38.74533321472686 7.945551970750415 a60.55164525073657,60.55164525073657 0 0,0 -0.21817611641492823,1.0192461813214255 l -38.60282305958749 -8.611311971488009" fill="#42ff2d" stroke="none" /><path d="M 120.41448212921028 104.9243191809786 l 31.64468534844958 7.63323458567846 a53.55230223874154,53.55230223874154 0 0,0 -0.2238707728577519,0.8942524538715794 l -31.508603261296766 -8.176814878947436" fill="#92ff23" stroke="none" /><path d="M 120.02730092923936 106.31721596034902 l 29.9463531886118 9.445984807725772 a52.400807287152126,52.400807287152126 0 0,0 -0.2787417250942479,0.8578788184464031 l -29.779319212501303 -9.960062526149969" fill="#a0ff22" stroke="none" /><path d="M 119.9155931802556 106.66101706037122 l 29.08456995862147 9.72769502441963 a51.66822883973029,51.66822883973029 0 0,0 -0.2893646409750323,0.8410290952594505 l -28.912814486703205 -10.226896822768381" fill="#a9ff21" stroke="none" /><path d="M 119.67450827220406 107.3425965602758 l 30.423796426555363 11.35426918434139 a53.473478682071736,53.473478682071736 0 0,0 -0.3292584135060259,0.8595898191675093 l -30.22384373345583 -11.876282570342044" fill="#93ff23" stroke="none" /><path d="M 119.41010516605496 108.01547362559984 l 30.149397079745846 12.450303336999204 a53.618954573307235,53.618954573307235 0 0,0 -0.35962748291163615,0.8500531373620355 l -29.9306186156419 -12.967431000027402" fill="#91ff24" stroke="none" /><path d="M 119.12269723197855 108.67885076344098 l 28.894085039800846 13.113602593009231 a52.730659042235814,52.730659042235814 0 0,0 -0.3822354655710742,0.8233011875767239 l -28.66407495738994 -13.609023847864785" fill="#9cff22" stroke="none" /><path d="M 118.81262510543309 109.33194174019688 l 27.688558970725698 13.73481998055632 a51.90795330936106,51.90795330936106 0 0,0 -0.40394603707085824,0.7970238535112698 l -27.448034263868568 -14.209398045770284" fill="#a6ff21" stroke="none" /><line stroke="#e1ed5e" stroke-width="0.3" x1="174.80103733775053" x2="179.2010983576182" y1="140.37084112569926" y2="142.7455964860345" /><path d="M 175.68104954172406 140.8457921977663 a86.0,86.0 0 0,1 -30.038265399797805,32.042727171017184" fill="none" id="id17" stroke="none" /><text fill="#e1ed5e" style="font-size:6.75px; font-family:Arial;" text-anchor="middle"><textPath startOffset="22.206326154141568" xlink:href="#id17">May</textPath></text><path d="M 118.48025628344425 109.97397251340804 l 28.764185793634525 15.524308433605956 a53.68612146940128,53.68612146940128 0 0,0 -0.44591076520549977,0.8094575623851873 l -28.492698618977517 -16.017136514388948" fill="#90ff24" stroke="none" /><path d="M 118.30583269289576 110.29060199501023 l 5.747109490612241 3.230730739311767 a27.592942333057316,27.592942333057316 0 0,0 -0.2363112189944189,0.4120285290487032 l -5.690646275465439 -3.3291791142187837" fill="#ff0000" stroke="none" /><path d="M 118.12598468904814 110.60418214915192 l 28.51563120894854 16.682401128829987 a54.037005473679784,54.037005473679784 0 0,0 -0.47660413493928916,0.7988159443768706 l -28.224246198311025 -17.170779167092963" fill="#8cff24" stroke="none" /><path d="M 117.75023020441432 111.22182372390056 l 30.09790728128444 19.028114344392023 a56.60832989928132,56.60832989928132 0 0,0 -0.5277921755536569,0.8191451771862946 l -29.76591024235373 -19.54338112149977" fill="#6eff28" stroke="none" /><path d="M 117.35343817320211 111.8261652097733 l 28.505577712948547 19.426217909598044 a55.49559251585826,55.49559251585826 0 0,0 -0.5447529094151793,0.7847571956044168 l -28.166963896371232 -19.91401636738948" fill="#7bff26" stroke="none" /><path d="M 116.93607887273984 112.41649034213515 l 26.36733906732614 19.33090967143648 a53.694351778504185,53.694351778504185 0 0,0 -0.5528951721053275,0.7406934358727986 l -26.03068262852572 -19.781915986818593" fill="#90ff24" stroke="none" /><path d="M 116.498646956653 112.99209946851258 l 25.099431331358307 19.76491219654907 a52.947350552038976,52.947350552038976 0 0,0 -0.5700213125699312,0.7111892322145457 l -24.75549210673352 -20.194029262341864" fill="#99ff23" stroke="none" /><path d="M 116.0416608686014 113.55231037782055 l 24.64410177174365 20.81982152153463 a53.26138125258457,53.26138125258457 0 0,0 -0.5976877829894252,0.6952459205534425 l -24.282071479183443 -21.240944541249604" fill="#95ff23" stroke="none" /><path d="M 115.56566222782051 114.09645910891815 l 27.927939717320225 25.291892786797238 a58.67823851499853,58.67823851499853 0 0,0 -0.6844497760348822,0.7428350514133498 l -27.48844353328962 -25.768879093011925" fill="#57ff2a" stroke="none" /><path d="M 115.07121518719521 114.62390073753431 l 20.58370769818165 19.97278218443705 a49.68102248510587,49.68102248510587 0 0,0 -0.60080768651997,0.6086150144311346 l -20.236859386606145 -20.324137692848847" fill="#c1ff1e" stroke="none" /><path d="M 114.29624159901734 115.38237550388516 l 24.665397318983043 26.539311110914532 a57.23143468240262,57.23143468240262 0 0,0 -0.727385509590048,0.6644494168665366 l -24.204912259926132 -26.959953294367654" fill="#67ff28" stroke="none" /><path d="M 113.75828350139079 115.86535959552629 l 24.349208299718576 28.078280659237567 a58.16549191927908,58.16549191927908 0 0,0 -0.7620635666129741,0.649447104083582 l -23.862279256528552 -28.4932521535441" fill="#5cff2a" stroke="none" /><path d="M 113.20401910651253 116.32954008644616 l 22.759466828249764 28.14685611404023 a57.19722143218572,57.19722143218572 0 0,0 -0.7709164268460338,0.6124626339637012 l -22.27159290868638 -28.53445266200906" fill="#67ff28" stroke="none" /><path d="M 112.63410532772338 116.77436683061366 l 22.781229656497626 30.246756157082526 a58.866220866203385,58.866220866203385 0 0,0 -0.8146385008751916,0.602650087691483 l -22.25720618520387 -30.63441619351378" fill="#54ff2b" stroke="none" /><path d="M 112.04921762599082 117.19931262002967 l 22.619723871430843 32.28788078358701 a60.42282528580246,60.42282528580246 0 0,0 -0.856977263000506,0.5894367758276344 l -22.060589723807453 -32.67245834877974" fill="#43ff2d" stroke="none" /><path d="M 111.45004920935366 117.60387380957326 l 22.253268855246194 34.21327975239103 a61.81368013496504,61.81368013496504 0 0,0 -0.8969406295035237,0.5724699470262408 l -21.661046423695737 -34.59126412824108" fill="#34ff2f" stroke="none" /><line stroke="#e1ed5e" stroke-width="0.3" x1="143.8653032363475" x2="146.44561519142675" y1="172.8068346515853" y2="177.08958963109032" /><path d="M 144.38136562736335 173.6633856474863 a86.0,86.0 0 0,1 -40.68145358897372,12.25698825130547" fill="none" id="id18" stroke="none" /><text fill="#e1ed5e" style="font-size:6.75px; font-family:Arial;" text-anchor="middle"><textPath startOffset="21.466115282336833" xlink:href="#id18">June</textPath></text><path d="M 110.8373102113329 117.98757091392108 l 13.010057039464252 21.59385668842441 a46.210240594852024,46.210240594852024 0 0,0 -0.6848624552679276,0.4046288102490821 l -12.636426713167943 -21.814604070967242" fill="#eeff19" stroke="none" /><path d="M 110.21172684928248 118.3499491758327 l 17.1647555284417 30.844184946508776 a56.298620049027534,56.298620049027534 0 0,0 -0.8508522727064577,0.4639524996432868 l -16.63128044386659 -31.135078097911833" fill="#72ff27" stroke="none" /><path d="M 109.57404056367764 118.69057910512821 l 15.95054601599232 31.13888437165495 a55.98642648398926,55.98642648398926 0 0,0 -0.8615140448146447,0.4319810268082577 l -15.412178063494913 -31.40883323937251" fill="#75ff27" stroke="none" /><path d="M 108.92500713936063 119.00905698771935 l 11.07733160393615 23.59321672723857 a47.06428880675651,47.06428880675651 0 0,0 -0.7362916728316534,0.33799539417096097 l -10.669571935337077 -23.780399191743605" fill="#e3ff1b" stroke="none" /><path d="M 108.59647513512805 119.15986991738527 l 15.985286412492716 35.62809214720595 a60.04984419609408,60.04984419609408 0 0,0 -0.9467267573023727,0.4150171886665962 l -15.36963898053259 -35.897973889167" fill="#47ff2c" stroke="none" /><path d="M 107.93186726928326 119.44442032107085 l 15.441717648577951 37.85429562103338 a61.88268999103399,61.88268999103399 0 0,0 -0.9897662536106319,0.3938484187591747 l -14.787830318925453 -38.114490884198624" fill="#34ff2f" stroke="none" /><path d="M 107.2578585660854 119.70592522655815 l 14.316376180521742 38.87061671977473 a62.42322381367536,62.42322381367536 0 0,0 -1.0114953345821833,0.3626862397009261 l -13.645161285309824 -39.111290500515615" fill="#30ff31" stroke="none" /><path d="M 106.57524785965236 119.94407469862006 l 12.885401903013772 39.084065507613396 a62.15334444253111,62.15334444253111 0 0,0 -1.018955705846385,0.3262374394513786 l -12.210724852076448 -39.300075793724474" fill="#31ff2f" stroke="none" /><path d="M 105.88484417918355 120.15858648285463 l 10.377123933729111 35.54693104727221 a58.03064957593235,58.03064957593235 0 0,0 -0.9612882991481211,0.2716696753885461 l -9.763704466476385 -35.720289515999276" fill="#5eff2a" stroke="none" /><path d="M 104.83641907484287 120.43548508189849 l 9.507359481898956 40.17176755240233 a62.281482441916964,62.281482441916964 0 0,0 -1.045379410796094,0.23792495043403214 l -8.814459921709998 -40.32946923641404" fill="#2fff2f" stroke="none" /><path d="M 104.13013068566511 120.58985236759428 l 7.530150710547535 37.53989963902095 a59.28769037995534,59.28769037995534 0 0,0 -1.0023357210537982,0.19210002651908265 l -6.882847374922033 -37.6639568638885" fill="#50ff2b" stroke="none" /><path d="M 103.41894727170886 120.7198165907248 l 2.6369580280129257 15.980733938186278 a37.19683317332745,37.19683317332745 0 0,0 -0.6326368950880742,0.09880487217788249 l -2.361485269316334 -16.023757117711266" fill="#ff930d" stroke="none" /><path d="M 102.70371172650421 120.8252237178851 l 5.247642845092697 40.41974414998505 a61.75896800189994,61.75896800189994 0 0,0 -1.0554095236442465,0.12779539528526343 l -4.55110589839707 -40.50408507399566" fill="#35ff2f" stroke="none" /><path d="M 101.98527174616119 120.90594882070398 l 4.13886951929226 43.58445865822053 a64.78053537164502,64.78053537164502 0 0,0 -1.1110037101830001,0.09586207497439818 l -3.388021491367719 -43.64924498547359" fill="#33ff50" stroke="none" /><path d="M 101.26447882468166 120.96189622390904 l 2.2670770989703706 37.58246793273232 a58.65078398237584,58.65078398237584 0 0,0 -1.0082682292638692,0.05211595060283272 l -1.6198208012930218 -37.61592369009736" fill="#57ff2a" stroke="none" /><line stroke="#e1ed5e" stroke-width="0.3" x1="102.19456741930631" x2="102.32365962044197" y1="184.97166512339345" y2="189.96999836594603" /><path d="M 102.22038585953345 185.97133177190398 a86.0,86.0 0 0,1 -42.740103519485714,-10.115201625700543" fill="none" id="id19" stroke="none" /><text fill="#e1ed5e" style="font-size:6.75px; font-family:Arial;" text-anchor="middle"><textPath startOffset="22.20632615414155" xlink:href="#id19">July</textPath></text><path d="M 100.54218724476979 120.99299961872073 l 1.1341319091305617 43.912561510121485 a64.92720470924039,64.92720470924039 0 0,0 -1.1174909049766701,0.019238619357328582 l -0.3780813142612235 -43.92557760675797" fill="#33ff52" stroke="none" /><path d="M 99.81925306533755 120.99922214144158 l -0.3302094513244071 38.363813109829714 a59.36523419200886,59.36523419200886 0 0,0 -1.0217613645692416,-0.017590548504180143 l 0.9905305057863166 -38.35244508404637" fill="#4fff2b" stroke="none" /><path d="M 99.09653310690486 120.98055641714683 l -2.161271769599834 50.1896468386708 a71.2361597402963,71.2361597402963 0 0,0 -1.2246239822214107,-0.06329907172726584 l 3.0248838202347335 -50.14500796018133" fill="#3cffa1" stroke="none" /><path d="M 98.37488393609728 120.93702456842531 l -3.8948381485069072 50.17876803795521 a71.32969825073442,71.32969825073442 0 0,0 -1.2233236256563436,-0.1055535098989946 l 4.758006091904792 -50.10429027577755" fill="#3cffa2" stroke="none" /><path d="M 97.2962882734958 120.8252237178851 l -3.3270036802496787 25.626103283211513 a46.841171083567765,46.841171083567765 0 0,0 -0.7986897200167515,-0.11069111751701338 l 3.7676219914532614 -25.565037600201894" fill="#e6ff1a" stroke="none" /><path d="M 96.58105272829116 120.7198165907248 l -8.341862782486265 50.55411889745801 a72.23773621248455,72.23773621248455 0 0,0 -1.2251211452670054,-0.21300301479531575 l 9.21083289922532 -50.40303730414169" fill="#3dffac" stroke="none" /><path d="M 95.86986931433489 120.58985236759428 l -8.676275873195353 43.25365295331917 a65.11526104234188,65.11526104234188 0 0,0 -1.097063588001665,-0.22990034141522375 l 9.419530922626404 -43.097896631177406" fill="#33ff55" stroke="none" /><path d="M 95.16358092515715 120.4354850818985 l -10.1418335713853 42.85263238026493 a65.03640414597686,65.03640414597686 0 0,0 -1.0871817165503914,-0.2672028149283376 l 10.877968572678903 -42.67170830702256" fill="#33ff54" stroke="none" /><path d="M 94.46302465271185 120.25689768951611 l -11.587805643573404 42.393721959197315 a64.94888964680405,64.94888964680405 0 0,0 -1.075890208301717,-0.304057319642882 l 12.315827019979736 -42.18797584621591" fill="#33ff52" stroke="none" /><path d="M 93.76903079525671 120.05430185196036 l -18.597879820812377 59.857059708967 a83.67973141959226,83.67973141959226 0 0,0 -1.3718640655375522,-0.4392275517458079 l 19.625465231440867 -59.52805931056149" fill="#4dd5ff" stroke="none" /><path d="M 93.08242187328487 119.8279376855182 l -13.010413527887538 37.29190534148347 a60.49629177739098,60.49629177739098 0 0,0 -0.980271654584898,-0.35149053893922166 l 13.650404743102163 -37.06242726150429" fill="#42ff2d" stroke="none" /><path d="M 92.40401165467489 119.57807347666478 l -14.167876108659781 36.516606773670944 a60.16875392060926,60.16875392060926 0 0,0 -0.9623531582264986,-0.3829401823640134 l 14.794350342928137 -36.26731974690087" fill="#46ff2c" stroke="none" /><path d="M 91.7346041902142 119.30500536409082 l -17.650676130077237 41.225659994110025 a65.84530532618595,65.84530532618595 0 0,0 -1.0380961554451689,-0.4550708477132944 l 18.35769296018015 -40.915724593102276" fill="#34ff5e" stroke="none" /><path d="M 91.07499286063937 119.00905698771935 l -21.39009983521806 45.55801697317125 a71.32960641102169,71.32960641102169 0 0,0 -1.1069245298038421,-0.5313910419987495 l 22.17113703302214 -45.183071654672936" fill="#3cffa2" stroke="none" /><path d="M 90.42595943632237 118.69057910512821 l -21.03517487084477 41.065169642722594 a67.1392104357303,67.1392104357303 0 0,0 -1.0240618999882125,-0.5357407859194411 l 21.738927673359477 -40.69699943785843" fill="#36ff6e" stroke="none" /><line stroke="#e1ed5e" stroke-width="0.3" x1="58.666819895761336" x2="56.23545636021788" y1="174.27360380694188" y2="178.64263932499728" /><path d="M 58.180547188652646 175.14741091055294 a86.0,86.0 0 0,1 -31.652253787137756,-30.449443065178592" fill="none" id="id20" stroke="none" /><text fill="#e1ed5e" style="font-size:6.75px; font-family:Arial;" text-anchor="middle"><textPath startOffset="22.20632615414155" xlink:href="#id20">August</textPath></text><path d="M 89.7882731507175 118.34994917583269 l -21.504343540891266 38.642201936955146 a65.22280589990974,65.22280589990974 0 0,0 -0.976327117118828,-0.5543840176726197 l 22.166319424931302 -38.26631475348789" fill="#33ff56" stroke="none" /><path d="M 89.1626897886671 117.98757091392108 l -22.933033847146632 38.06383360379668 a65.4384908615481,65.4384908615481 0 0,0 -0.959829348114112,-0.5896055802071755 l 23.58484239519305 -37.663439556761126" fill="#34ff59" stroke="none" /><path d="M 88.54995079064634 117.60387380957326 l -25.92191572281041 39.85363948601807 a68.54217385671362,68.54217385671362 0 0,0 -0.9834995803043879,-0.6518098932327909 l 26.604090001854757 -39.40153157169396" fill="#38ff80" stroke="none" /><path d="M 87.95078237400918 117.19931262002967 l -29.109251643801525 41.55117242441585 a71.7331101067705,71.7331101067705 0 0,0 -1.0051949520395018,-0.7171799086988997 l 29.82017392368991 -41.043948253872735" fill="#3cffa6" stroke="none" /><path d="M 86.79598089348748 116.32954008644616 l -35.67926660415695 44.12489936342309 a77.74519194824109,77.74519194824109 0 0,0 -1.033381211180049,-0.8504023845664948 l 36.43351794388169 -43.50420185999941" fill="#44ffeb" stroke="none" /><path d="M 86.24171649860922 115.8653595955263 l -29.58974051524165 34.12139846988667 a66.16439501753696,66.16439501753696 0 0,0 -0.8540173921339362,-0.7535710536586532 l 30.172700260282173 -33.607004274455726" fill="#35ff62" stroke="none" /><path d="M 85.70375840098266 115.38237550388516 l -33.25480212662988 35.78128209965203 a69.84856203795754,69.84856203795754 0 0,0 -0.8736530603191208,-0.8260934992062797 l 33.86579102133982 -35.203553963699825" fill="#3aff90" stroke="none" /><path d="M 85.18274418774928 114.88116024355367 l -33.95056761498011 34.09699093002157 a69.1170014845201,69.1170014845201 0 0,0 -0.835852880716405,-0.8467145552116814 l 34.532461120752046 -33.507535880829224" fill="#39ff87" stroke="none" /><path d="M 84.67929136418377 114.36230785411682 l -32.49490235190358 30.46215435338705 a65.54056046694211,65.54056046694211 0 0,0 -0.7644950337309734,-0.829708369512064 l 33.014443793630285 -29.898294729073644" fill="#34ff5a" stroke="none" /><path d="M 84.19399662182784 113.82643327865904 l -35.385605885461224 30.95385386769621 a68.01363816111107,68.01363816111107 0 0,0 -0.7632344420956376,-0.8878140852048481 l 35.91318283712764 -30.340162683329833" fill="#37ff79" stroke="none" /><path d="M 83.72743513129214 113.27417163493432 l -35.407841606645675 28.883570015014193 a66.69437453400074,66.69437453400074 0 0,0 -0.718019211849619,-0.8958393672832639 l 35.89977873055016 -28.26980281415267" fill="#35ff69" stroke="none" /><path d="M 82.85270091963577 112.12312394758628 l -23.845495606559897 16.85874244539096 a50.20316519767154,50.20316519767154 0 0,0 -0.49280166340178777,-0.7099175510151217 l 24.13215817712382 -16.445783632188828" fill="#bbff1f" stroke="none" /><path d="M 82.44556493220864 111.52570212397912 l -39.46230410074161 25.90973508600938 a68.20792112735525,68.20792112735525 0 0,0 -0.6359418683761054,-0.9869959021364171 l 39.902450832494765 -25.226617583951516" fill="#37ff7c" stroke="none" /><line stroke="#e1ed5e" stroke-width="0.3" x1="26.63291911575756" x2="22.317208475507996" y1="142.92168965132927" y2="145.44649492493687" /><path d="M 25.769776987707644 143.4266507060508 a86.0,86.0 0 0,1 -11.730757126820373,-40.83630448921669" fill="none" id="id21" stroke="none" /><text fill="#e1ed5e" style="font-size:6.75px; font-family:Arial;" text-anchor="middle"><textPath startOffset="21.46611528233685" xlink:href="#id21">September</textPath></text><path d="M 81.87401531095188 110.60418214915194 l -43.18583515259489 25.26485981741243 a71.03328391601536,71.03328391601536 0 0,0 -0.6083425866208007,-1.060696577122607 l 43.61432973536807 -24.517743394431516" fill="#3bff9e" stroke="none" /><path d="M 81.51974371655577 109.97397251340807 l -40.72517626377385 21.97977032507233 a67.27796760077499,67.27796760077499 0 0,0 -0.5412592322799197,-1.0238584886061792 l 41.09748800427865 -21.275496821380024" fill="#36ff70" stroke="none" /><path d="M 81.02952815118164 109.00673069616217 l -41.63495280920851 19.767289421602822 a67.0892072670211,67.0892072670211 0 0,0 -0.48631810867307473,-1.0474859411917952 l 41.9690455347214 -19.047683413132198" fill="#36ff6e" stroke="none" /><path d="M 80.73074385275274 108.34839909993369 l -41.12855107102813 17.818931676405104 a65.82267327246961,65.82267327246961 0 0,0 -0.4414789974155586,-1.0435259391027807 l 41.42918104963599 -17.108331211636163" fill="#34ff5e" stroke="none" /><path d="M 80.45479744820244 107.68017299344265 l -43.25852055706997 16.998182568752007 a67.47835852767469,67.47835852767469 0 0,0 -0.4154922743461169,-1.0847192184631327 l 43.5447071110096 -16.251039783455717" fill="#36ff73" stroke="none" /><path d="M 80.20201598880116 107.00284435728193 l -41.555000734906656 14.698628014280644 a65.07797354212519,65.07797354212519 0 0,0 -0.36446506629466224,-1.0593060849681386 l 41.80185663214454 -13.98114922622321" fill="#33ff54" stroke="none" /><path d="M 79.86692584326677 105.97154293290107 l -44.66594509710824 13.248081575102225 a67.58925108690255,67.58925108690255 0 0,0 -0.32123356789651275,-1.1182561917327216 l 44.88737130189086 -12.477267907864906" fill="#37ff74" stroke="none" /><path d="M 79.67330655649465 105.27499134158121 l -46.15672842339424 11.978157857588686 a68.68563561925419,68.68563561925419 0 0,0 -0.28713436561060374,-1.1469590592841583 l 46.35607410329991 -11.181870958907137" fill="#38ff82" stroke="none" /><path d="M 79.50377843672027 104.57218783832718 l -45.37812662300747 10.12271057039577 a67.49347959774254,67.49347959774254 0 0,0 -0.24318852445693023,-1.136095824634242 l 45.54564918618884 -9.340100926345363" fill="#36ff73" stroke="none" /><path d="M 79.35854240842038 103.8639653848113 l -46.441542267243506 8.693596900399271 a68.24823250902405,68.24823250902405 0 0,0 -0.2062187217504673,-1.1565841069315037 l 46.584307431333166 -7.892894042734553" fill="#37ff7c" stroke="none" /><path d="M 79.23777060512086 103.15116336523772 l -46.70211129959207 7.088158954780967 a68.23694737393312,68.23694737393312 0 0,0 -0.16625753181512762,-1.1628047902855752 l 46.8172028824238 -6.283208692514991" fill="#37ff7c" stroke="none" /><path d="M 79.1416061653843 102.43462659150553 l -46.3946928409622 5.4152660933980785 a67.70966314018477,67.70966314018477 0 0,0 -0.1251587280590968,-1.1588143798345145 l 46.481033870522346 -4.615855391678782" fill="#37ff76" stroke="none" /><path d="M 79.07016306316243 101.71520430193888 l -46.73365188715676 3.829832071987319 a67.89031704317613,67.89031704317613 0 0,0 -0.08542360998333517,-1.1655372888484192 l 46.79265205580443 -3.024821646642139" fill="#37ff78" stroke="none" /><path d="M 79.0235259727143 100.99374915477108 l -48.74303415470494 2.309174979989887 a69.7977014591358,69.7977014591358 0 0,0 -0.04652471201507269,-1.2005960891982954 l 48.77556099957121 -1.469801643777595" fill="#3aff8f" stroke="none" /><line stroke="#e1ed5e" stroke-width="0.3" x1="15.007084014347285" x2="10.007500721073583" y1="101.09737516637583" y2="101.16192664675087" /><path d="M 14.007167355692545 101.11028546245083 a86.0,86.0 0 0,1 10.666146001902534,-42.60595125391555" fill="none" id="id22" stroke="none" /><text fill="#e1ed5e" style="font-size:6.75px; font-family:Arial;" text-anchor="middle"><textPath startOffset="22.20632615414155" xlink:href="#id22">October</textPath></text><path d="M 79.00175016825051 100.2711162175752 l -45.54498351058361 0.5880482305836864 a66.54877960715112,66.54877960715112 0 0,0 -0.0049300055626243615,-1.1455596697665555 l 45.548357813435736 0.19602091738654442" fill="#35ff67" stroke="none" /><path d="M 79.03285615573316 98.82574320788736 l -20.028409597121943 -1.1216833432020021 a41.05979472757643,41.05979472757643 0 0,0 0.04559476888224734,-0.7053308938859607 l 20.006134237235283 1.4662733013409746" fill="#ffca12" stroke="none" /><path d="M 79.16333360222342 97.38593545837743 l -47.877099337517414 -6.006422781107641 a69.25239637157847,69.25239637157847 0 0,0 0.1585682043989639,-1.1815173041906906 l 47.766615134060615 6.8296584273629914" fill="#39ff89" stroke="none" /><path d="M 79.26566170972629 96.67025291283419 l -46.3627525659545 -7.4454384870286745 a67.95678204217202,67.95678204217202 0 0,0 0.1954182649810812,-1.1533696619120877 l 46.2277224394532 8.24239393725659" fill="#37ff79" stroke="none" /><path d="M 79.62865764111835 94.90015583598534 l -46.626338510913335 -11.672625993670998 a69.06522277616534,69.06522277616534 0 0,0 0.29863693182239087,-1.1507699199830608 l 46.41850524722064 12.473492339202922" fill="#39ff86" stroke="none" /><path d="M 79.91906864156998 93.8553929516997 l -43.37208179641388 -13.271515884835837 a66.35714511779005,66.35714511779005 0 0,0 0.3436178878265321,-1.0893626064655422 l 43.13720842481914 14.016128657727794" fill="#35ff64" stroke="none" /><path d="M 80.38941819471856 92.48833698450439 l -42.79564422710538 -16.392499781851452 a66.82773411277256,66.82773411277256 0 0,0 0.4207170236428512,-1.070678935371603 l 42.50713365358084 17.12672772211882" fill="#36ff6a" stroke="none" /><path d="M 81.10775173730289 90.83032412892265 l -43.41263765052988 -21.071066314002405 a69.25605602808099,69.25605602808099 0 0,0 0.5297758068213643,-1.0679956991939392 l 43.043501830755105 21.815221601695306" fill="#39ff89" stroke="none" /><path d="M 81.43458229118936 90.18545643968196 l -41.6996137148659 -22.04435589180211 a68.16790657484665,68.16790657484665 0 0,0 0.5573274977206216,-1.032643209898766 l 41.3139781179268 22.758880085033347" fill="#37ff7b" stroke="none" /><line stroke="#e1ed5e" stroke-width="0.3" x1="26.266209847984243" x2="21.928928074336255" y1="57.711370442889674" y2="55.22380399835377" /><path d="M 25.398753493254645 57.213857153982495 a86.0,86.0 0 0,1 29.58750427330803,-30.492523968695096" fill="none" id="id23" stroke="none" /><text fill="#e1ed5e" style="font-size:6.75px; font-family:Arial;" text-anchor="middle"><textPath startOffset="21.46611528233685" xlink:href="#id23">November</textPath></text><path d="M 82.15384107792192 88.93136811851018 l -37.75826099206842 -23.418613116203055 a65.4310444782874,65.4310444782874 0 0,0 0.60187962580991,-0.9520290263265003 l 37.34955377001255 24.06508979024377" fill="#34ff59" stroke="none" /><path d="M 82.95767976084542 87.72973835380427 l -40.703903510124825 -29.306311528125153 a71.15643185420065,71.15643185420065 0 0,0 0.7242280879699298,-0.9878462980870895 l 40.193412809641266 30.002620269883746" fill="#3bffa0" stroke="none" /><path d="M 84.07557802195018 86.31012108654704 l -38.03120786210732 -32.69460149211457 a71.1528637086557,71.1528637086557 0 0,0 0.8064266901141348,-0.921885111749399 l 37.46278930841534 33.34440216006691" fill="#3bffa0" stroke="none" /><path d="M 84.5562425177563 85.77008943001954 l -36.49340749784648 -33.625102290376375 a70.62273969504457,70.62273969504457 0 0,0 0.8314404316470996,-0.8869226819735133 l 35.90919974422893 34.24829438922794" fill="#3bff99" stroke="none" /><path d="M 85.57189188830299 84.74124197986013 l -33.472029897496235 -35.39906969748297 a69.71828117766614,69.71828117766614 0 0,0 0.8790881529152127,-0.8170166316467475 l 32.85773386078617 35.96999091520437" fill="#3aff8e" stroke="none" /><path d="M 86.65592168130627 83.78471172551755 l -31.861189988113583 -38.71667777170917 a71.14096693460377,71.14096693460377 0 0,0 0.9522611441977317,-0.7699956199509095 l 31.190025445351353 39.25937948892422" fill="#3bff9f" stroke="none" /><path d="M 87.22198572758235 83.33499621200491 l -38.334042817252964 -49.99501136398527 a84.0,84.0 0 0,0 1.1550153849664402,-0.8699336419765826 l 37.467781278528136 50.64746159546771" fill="#4dd2ff" stroke="none" /><path d="M 88.39885842347998 82.49532879139004 l -26.429894452133368 -39.879404057892586 a68.84251444859028,68.84251444859028 0 0,0 0.9934072336116427,-0.6461396981609476 l 25.73952019273744 40.328442680213065" fill="#38ff84" stroke="none" /><line stroke="#e1ed5e" stroke-width="0.3" x1="56.76296977257108" x2="54.21961505331056" y1="26.818313649435495" y2="22.513508569990535" /><path d="M 56.25429882871898 25.957352633546506 a86.0,86.0 0 0,1 42.26535254187918,-11.944610805530505" fill="none" id="id24" stroke="none" /><text fill="#e1ed5e" style="font-size:6.75px; font-family:Arial;" text-anchor="middle"><textPath startOffset="22.20632615414155" xlink:href="#id24">December</textPath></text><path d="M 89.3179101791058 81.91981866633112 l -25.884488168675528 -43.81129981733144 a71.8865082260358,71.8865082260358 0 0,0 1.0707778411791653,-0.6202636395382791 l 25.126513595031042 44.250367614259766" fill="#3cffa8" stroke="none" /><path d="M 90.26544431104013 81.39251694778311 l -23.365641111990808 -44.663134598802266 a71.40584070090571,71.40584070090571 0 0,0 1.0940038271630388,-0.5603912516120859 l 22.593376797239006 45.05871837572686" fill="#3cffa3" stroke="none" /><path d="M 91.23893434514133 80.91482961587045 l -20.663298901373985 -45.013083541066216 a70.5292803436768,70.5292803436768 0 0,0 1.1077056109054502,-0.49699521876973174 l 19.88541117200176 45.36209909035247" fill="#3bff98" stroke="none" /><path d="M 91.56875222667455 80.76684994638697 l -12.69060625811272 -28.94949134407094 a52.608931273911935,52.608931273911935 0 0,0 0.832514397505445,-0.35643921785835864 l 12.190408102816967 29.163650089892084" fill="#9dff22" stroke="none" /><path d="M 92.57280143429618 80.3572730644239 l -17.733871518405735 -46.90080555475561 a71.14155722269021,71.14155722269021 0 0,0 1.1491654086666057,-0.4232473182177352 l 16.92392378396656 47.199116140779665" fill="#3bff9f" stroke="none" /><path d="M 94.63758080256005 79.69619591428918 l -12.832872144795164 -48.58928634473181 a71.25536145502289,71.25536145502289 0 0,0 1.188577131011049,-0.3029947754684866 l 11.994586125099117 48.80298411636916" fill="#3cffa1" stroke="none" /><path d="M 98.19473922651362 79.07773832637324 l -4.32572898435759 -50.1334959852569 a71.31977097473597,71.31977097473597 0 0,0 1.2240164357964898,-0.09500723303796015 l 3.4621223591987658 50.20052848048332" fill="#3cffa2" stroke="none" /></svg>