<?xml version="1.0" encoding="utf-8" ?>
<svg baseProfile="full" height="200mm" version="1.1" viewBox="0,0,200,200" width="200mm" xmlns="http://www.w3.org/2000/svg" xmlns:ev="http://www.w3.org/2001/xml-events" xmlns:xlink="http://www.w3.org/1999/xlink"><defs /><rect fill="#1a1a1a" height="200" width="200" x="0" y="0" /><text alignment-baseline="middle" fill="#e1ed5e" style="dominant-baseline: central; font-size:9.0px; font-family:Arial;" text-anchor="middle" x="100.0" y="100.0">2018</text><line stroke="#e1ed5e" stroke-width="0.3" x1="100.0" x2="100.0" y1="15.0" y2="10.0" /><path d="M 100.0 14.0 a86.0,86.0 0 0,1 42.46469731375804,11.215312516191453" fill="none" id="id1" stroke="none" /><text fill="#e1ed5e" style="font-size:6.75px; font-family:Arial;" text-anchor="middle"><textPath startOffset="22.20632615414155" xlink:href="#id1">January</textPath></text><line stroke="#e1ed5e" stroke-width="0.3" x1="143.23703022742887" x2="145.7803849466894" y1="26.81831364943548" y2="22.513508569990506" /><path d="M 143.74570117128098 25.957352633546492 a86.0,86.0 0 0,1 28.547481713284135,27.462654790039103" fill="none" id="id2" stroke="none" /><text fill="#e1ed5e" style="font-size:6.75px; font-family:Arial;" text-anchor="middle"><textPath startOffset="19.985693538727396" xlink:href="#id2">February</textPath></text><line stroke="#e1ed5e" stroke-width="0.3" x1="172.23445277983987" x2="176.4835382374775" y1="55.19839476539836" y2="52.563006222186495" /><path d="M 173.08426987136738 54.67131705675599 a86.0,86.0 0 0,1 12.851231095245387,41.99856678651699" fill="none" id="id3" stroke="none" /><text fill="#e1ed5e" style="font-size:6.75px; font-family:Arial;" text-anchor="middle"><textPath startOffset="22.20632615414155" xlink:href="#id3">March</textPath></text><path d="M 119.97218684219823 93.5106431181261 l 34.38878992171264 -11.173595175180104 a57.15851353994648,57.15851353994648 0 0,0 0.2959845192109484,0.9383518109623723 l -34.576029924691795 10.579993197791312" fill="#87ff25" stroke="none" /><path d="M 120.18372546131832 94.20196356495316 l 43.99302066163346 -12.637564713846398 a66.7721958052218,66.7721958052218 0 0,0 0.3078300910608888,1.1074286211835822 l -44.20403752326071 11.878424789243864" fill="#33ff54" stroke="none" /><path d="M 120.53481517161879 95.60439243477599 l 35.58799067053788 -7.617835354989774 a57.39418216503873,57.39418216503873 0 0,0 0.19847647234323998,0.967841766630093 l -35.71384643879611 7.004117932196269" fill="#84ff25" stroke="none" /><path d="M 120.67395015179393 96.31383870115 l 40.55100068483363 -7.230235550369782 a62.190532439569274,62.190532439569274 0 0,0 0.17883668976627484,1.0555042663651157 l -40.66944923612013 6.531145495688829" fill="#48ff2c" stroke="none" /><path d="M 120.83666639777658 97.38593545837742 l 39.27636121226939 -4.927416948994753 a60.58423913460887,60.58423913460887 0 0,0 0.12090781312750533,1.0358643057193249 l -39.355359378400486 4.2506089049505755" fill="#5bff2a" stroke="none" /><path d="M 120.87857604477298 97.74499172005257 l 29.579909531531815 -3.1948031690791194 a50.75193800717467,50.75193800717467 0 0,0 0.08633357632445822,0.869367331683444 l -29.6305202335385 2.6851603066912406" fill="#deff1b" stroke="none" /><path d="M 120.94382443527127 98.46500227214037 l 40.315238590891724 -2.954751641773695 a61.42337219858197,61.42337219858197 0 0,0 0.06820746372317842,1.0551392744595505 l -40.36012664561932 2.2603533030611094" fill="#51ff2b" stroke="none" /><path d="M 120.98425023603335 99.18683210126433 l 52.27420624529605 -2.025695746687662 a73.31344073786293,73.31344073786293 0 0,0 0.03801234015532429,1.2614445111227657 l -52.30133027990702 1.1255810881398975" fill="#3dffad" stroke="none" /><line stroke="#e1ed5e" stroke-width="0.3" x1="184.98032266829074" x2="189.97916517819016" y1="98.17113171792111" y2="98.06355123074" /><path d="M 185.9800911702706 98.14961562048488 a86.0,86.0 0 0,1 -9.607161424134198,41.387399972396054" fill="none" id="id4" stroke="none" /><text fill="#e1ed5e" style="font-size:6.75px; font-family:Arial;" text-anchor="middle"><textPath startOffset="21.466115282336823" xlink:href="#id4">April</textPath></text><path d="M 120.99513854157772 99.54816195383933 l 55.804013886952525 -1.2009626205928625 a76.81693539698549,76.81693539698549 0 0,0 0.01707162336841122,1.3222160434724795 l -55.81641851743865 0.24021031905992044" fill="#42ffd9" stroke="none" /><path d="M 120.99980553446 99.90962569577887 l 58.10375466346292 -0.25005404891625505 a79.10429272454203,79.10429272454203 0 0,0 -0.005860131552548433,1.361688193015389 l -58.09945023462087 -0.7501436223028186" fill="#46fff4" stroke="none" /><path d="M 120.99824983174949 100.27111621757518 l 57.39936103139205 0.7411045100784448 a78.40414517007414,78.40414517007414 0 0,0 -0.02903916792230534,1.3493360261302416 l -57.37809980078474 -1.7290303519988013" fill="#45ffec" stroke="none" /><path d="M 120.9904718944345 100.63252640178507 l 57.208854062865605 1.7239303047887224 a78.23482260723819,78.23482260723819 0 0,0 -0.05214860253646691,1.3457237143598784 l -57.17070332747793 -2.708431266162607" fill="#44ffea" stroke="none" /><path d="M 120.9764740272857 100.99374915477107 l 57.55150622896262 2.726471598441165 a78.61605259473639,78.61605259473639 0 0,0 -0.0756722524646449,1.3511789015001092 l -57.49604762561045 -3.7167222162766977" fill="#45ffee" stroke="none" /><path d="M 120.95626037817324 101.35467743843564 l 57.5901841277742 3.72280749071561 a78.71038557732797,78.71038557732797 0 0,0 -0.09903805980047083,1.3512956398725668 l -57.517569509309396 -4.713576267084947" fill="#45fff0" stroke="none" /><path d="M 120.8583938346157 102.4346265915055 l 56.30965957583275 6.572557582762269 a77.69194188528823,77.69194188528823 0 0,0 -0.16647714897712168,1.3269866756756374 l -56.188180917608776 -7.540862012725302" fill="#44ffe3" stroke="none" /><path d="M 120.81339534386255 102.79330883721812 l 56.25970456607841 7.550461005875606 a77.76410678645152,77.76410678645152 0 0,0 -0.1894702057416735,1.3251541776633646 l -56.12140030932014 -8.51776065551938" fill="#44ffe4" stroke="none" /><path d="M 120.70491114924044 103.5080841355445 l 56.59353376909064 9.588781934813182 a78.40011152834637,78.40011152834637 0 0,0 -0.236893618927522,1.3286252206363294 l -56.42009370782393 -10.56152590618273" fill="#45ffec" stroke="none" /><path d="M 120.5718875245553 104.21870165774334 l 33.92479751405621 6.956998930716727 a55.630791508305265,55.630791508305265 0 0,0 -0.2004455864760003,0.9364150482441069 l -33.80001788885576 -7.539927798377003" fill="#9bff22" stroke="none" /><path d="M 120.41448212921028 104.9243191809786 l 55.20395964974187 13.316130952948578 a77.78729175234899,77.78729175234899 0 0,0 -0.32518305273739856,1.298944650772445 l -54.96656528270941 -14.264403443118418" fill="#44ffe5" stroke="none" /><path d="M 120.23288151984713 105.62410040840565 l 57.46793971748859 15.974267576188593 a80.64680477585176,80.64680477585176 0 0,0 -0.38329261563044237,1.3342918782767177 l -57.18445446497205 -16.961116929969894" fill="#48f8ff" stroke="none" /><path d="M 120.02730092923936 106.31721596034902 l 54.072234251798776 17.056016805963463 a77.69844994589101,77.69844994589101 0 0,0 -0.4133104258562996,1.2720386934008356 l -53.77063157492623 -17.984254399342092" fill="#44ffe3" stroke="none" /><path d="M 119.9155931802556 106.66101706037122 l 55.21773929644997 18.468257518607498 a79.22435288420402,79.22435288420402 0 0,0 -0.44369096722721396,1.2895736379003262 l -54.89165749827953 -19.416003859597126" fill="#46fff6" stroke="none" /><path d="M 119.54520255179757 107.68017299344265 l 53.71060714474109 21.105268843402705 a78.70841960068753,78.70841960068753 0 0,0 -0.5063477011421562,1.256713468962077 l -53.33935682934154 -22.026681680207595" fill="#45fff0" stroke="none" /><path d="M 118.97047184881838 109.00673069616215 l 35.63807963574997 16.920116081750166 a60.45076739866992,60.45076739866992 0 0,0 -0.45437889376292595,0.9361551037343683 l -35.34154748537233 -17.53106014144981" fill="#5dff2a" stroke="none" /><path d="M 118.81262510543309 109.33194174019688 l 33.08306266089681 16.41074606061281 a57.92968482522892,57.92968482522892 0 0,0 -0.45080695966671874,0.8894848994897813 l -32.795677031443816 -16.977785171805284" fill="#7dff26" stroke="none" /><path d="M 118.64920377521936 109.65438752849418 l 33.64674015400048 17.418366619432035 a58.88802737910451,58.88802737910451 0 0,0 -0.4737611676801681,0.8961775876932582 l -33.341926478095424 -17.994959222211428" fill="#71ff27" stroke="none" /><line stroke="#e1ed5e" stroke-width="0.3" x1="174.80103733775053" x2="179.2010983576182" y1="140.37084112569926" y2="142.7455964860345" /><path d="M 175.68104954172406 140.8457921977663 a86.0,86.0 0 0,1 -30.038265399797805,32.042727171017184" fill="none" id="id5" stroke="none" /><text fill="#e1ed5e" style="font-size:6.75px; font-family:Arial;" text-anchor="middle"><textPath startOffset="22.206326154141568" xlink:href="#id5">May</textPath></text><path d="M 118.30583269289576 110.29060199501023 l 30.073137037581088 16.905578084696998 a55.49916146312717,55.49916146312717 0 0,0 -0.47530540020762263,0.8287350288734162 l -29.777679641221084 -17.42073295942873" fill="#9dff22" stroke="none" /><path d="M 118.12598468904814 110.60418214915192 l 33.20600822393466 19.426396176180997 a59.47107810501229,59.47107810501229 0 0,0 -0.5245324289472718,0.8791465219645702 l -32.86669491928916 -19.995104792031672" fill="#69ff28" stroke="none" /><path d="M 117.14729908036423 112.12312394758627 l 33.812907837991304 23.905693300566874 a62.41008221002781,62.41008221002781 0 0,0 -0.6277271677265606,0.8718581334025884 l -33.396400877889135 -24.484185039420595" fill="#45ff2d" stroke="none" /><path d="M 116.498646956653 112.99209946851258 l 17.732440917041227 13.963668464390144 a43.57041200022192,43.57041200022192 0 0,0 -0.4690709389352581,0.5852381192757523 l -17.489452066051115 -14.266834417244146" fill="#ffb510" stroke="none" /><line stroke="#e1ed5e" stroke-width="0.3" x1="143.8653032363475" x2="146.44561519142675" y1="172.8068346515853" y2="177.08958963109032" /><path d="M 144.38136562736335 173.6633856474863 a86.0,86.0 0 0,1 -40.68145358897372,12.25698825130547" fill="none" id="id6" stroke="none" /><text fill="#e1ed5e" style="font-size:6.75px; font-family:Arial;" text-anchor="middle"><textPath startOffset="21.466115282336833" xlink:href="#id6">June</textPath></text><path d="M 107.93186726928326 119.44442032107085 l 12.01711776065957 29.45912744795398 a52.81589711556717,52.81589711556717 0 0,0 -0.844749842431438,0.3361433959533312 l -11.508246842186265 -29.661617688313378" fill="#c1ff1e" stroke="none" /><path d="M 107.59598834532513 119.57807347666477 l 16.878875923509764 43.50399948116795 a67.66363062706007,67.66363062706007 0 0,0 -1.0894804041183872,0.41194826570515214 l -16.127525298631102 -43.788095996979735" fill="#34ff60" stroke="none" /><path d="M 106.57524785965236 119.94407469862006 l 15.575822711653943 47.244663362410954 a70.74599953134333,70.74599953134333 0 0,0 -1.1598255980403736,0.37133953040731943 l -14.760275768522629 -47.505775739477976" fill="#39ff8b" stroke="none" /><line stroke="#e1ed5e" stroke-width="0.3" x1="102.19456741930631" x2="102.32365962044197" y1="184.97166512339345" y2="189.96999836594603" /><path d="M 102.22038585953345 185.97133177190398 a86.0,86.0 0 0,1 -42.740103519485714,-10.115201625700543" fill="none" id="id7" stroke="none" /><text fill="#e1ed5e" style="font-size:6.75px; font-family:Arial;" text-anchor="middle"><textPath startOffset="22.20632615414155" xlink:href="#id7">July</textPath></text><path d="M 100.54218724476979 120.99299961872073 l 0.30263258884593086 11.7176600584777 a32.72156746044978,32.72156746044978 0 0,0 -0.5631854042906169,0.009695747475436129 l -0.10088749466264596 -11.721133283232295" fill="#ff0000" stroke="none" /><path d="M 97.65516085044442 120.86867818915974 l -4.525304806495536 40.27445965004115 a61.52789759775955,61.52789759775955 0 0,0 -1.051460722149438,-0.1273172504167398 l 5.2178929516963635 -40.190596870899064" fill="#50ff2b" stroke="none" /><path d="M 96.93821686468263 120.77559828337769 l -5.011821887849418 34.00750268977049 a55.37482505890428,55.37482505890428 0 0,0 -0.9418048366663329,-0.14709054629255164 l 5.596462588124269 -33.91619383613083" fill="#9eff22" stroke="none" /><path d="M 96.22490169976321 120.6578951692458 l -6.550741803463803 35.84662615229467 a57.440263784418796,57.440263784418796 0 0,0 -0.9711025652863466,-0.18611411788070845 l 7.166811983321844 -35.72855483606549" fill="#83ff25" stroke="none" /><path d="M 94.81253420990036 120.34920634021253 l -9.942369088941218 39.00157192121543 a61.24889210185137,61.24889210185137 0 0,0 -1.0193844360383306,-0.2692286945986864 l 10.612243967791038 -38.82465187731316" fill="#53ff2b" stroke="none" /><path d="M 92.40401165467489 119.57807347666478 l -19.788608112401743 51.00360953870632 a75.7079262721868,75.7079262721868 0 0,0 -1.2108903243525924,-0.48183824998812486 l 20.663619512796195 -50.655424444312125" fill="#41ffcb" stroke="none" /><line stroke="#e1ed5e" stroke-width="0.3" x1="58.666819895761336" x2="56.23545636021788" y1="174.27360380694188" y2="178.64263932499728" /><path d="M 58.180547188652646 175.14741091055294 a86.0,86.0 0 0,1 -31.652253787137756,-30.449443065178592" fill="none" id="id8" stroke="none" /><text fill="#e1ed5e" style="font-size:6.75px; font-family:Arial;" text-anchor="middle"><textPath startOffset="22.20632615414155" xlink:href="#id8">August</textPath></text><path d="M 87.95078237400918 117.19931262002967 l -19.661773263102223 28.065638410147663 a55.26755589794518,55.26755589794518 0 0,0 -0.7744633979690222,-0.552559071172331 l 20.14196398892013 -27.72303507713111" fill="#a0ff22" stroke="none" /><path d="M 87.07902340077011 116.55440617244103 l -30.470083219328448 39.03839077851955 a70.52193378664853,70.52193378664853 0 0,0 -0.9505097598758789,-0.7551424393996662 l 31.13755047192168 -38.508114425114755" fill="#39ff88" stroke="none" /><path d="M 86.79598089348748 116.32954008644616 l -35.9609587425076 44.473270797009164 a78.1932021228436,78.1932021228436 0 0,0 -1.039336117010881,-0.8553028666573445 l 36.72116498806317 -43.84767281149463" fill="#44ffe9" stroke="none" /><path d="M 86.24171649860922 115.8653595955263 l -37.68687394174297 43.458604923832276 a78.52348050515167,78.52348050515167 0 0,0 -1.0135423746338972,-0.8943333030631954 l 38.42935866928345 -42.80344847899679" fill="#45ffed" stroke="none" /><path d="M 85.70375840098266 115.38237550388516 l -38.99875508599744 41.961622623815906 a78.28595527248498,78.28595527248498 0 0,0 -0.9791864343126321,-0.9258818913782253 l 39.71527735470089 -41.284106095691754" fill="#44ffeb" stroke="none" /><path d="M 85.18274418774928 114.88116024355367 l -34.507494683894976 34.656319935439875 a69.906315551538,69.906315551538 0 0,0 -0.845398295339964,-0.856384009829545 l 35.09893360429047 -34.057195431629665" fill="#38ff7f" stroke="none" /><path d="M 82.44556493220864 111.52570212397912 l -36.058737320054654 23.675057825147572 a64.13630605581317,64.13630605581317 0 0,0 -0.5979798479375977,-0.9280780033899444 l 36.46092203136929 -23.05085822183618" fill="#31ff2f" stroke="none" /><path d="M 82.05923443525364 110.91462005526583 l -37.31919381140004 22.703870676547563 a64.68281092638425,64.68281092638425 0 0,0 -0.5704996951029395,-0.9561903040736809 l 37.704474382201205 -22.05811827858777" fill="#30ff36" stroke="none" /><line stroke="#e1ed5e" stroke-width="0.3" x1="26.63291911575756" x2="22.317208475507996" y1="142.92168965132927" y2="145.44649492493687" /><path d="M 25.769776987707644 143.4266507060508 a86.0,86.0 0 0,1 -11.730757126820373,-40.83630448921669" fill="none" id="id9" stroke="none" /><text fill="#e1ed5e" style="font-size:6.75px; font-family:Arial;" text-anchor="middle"><textPath startOffset="21.46611528233685" xlink:href="#id9">September</textPath></text><line stroke="#e1ed5e" stroke-width="0.3" x1="15.007084014347285" x2="10.007500721073583" y1="101.09737516637583" y2="101.16192664675087" /><path d="M 14.007167355692545 101.11028546245083 a86.0,86.0 0 0,1 10.666146001902534,-42.60595125391555" fill="none" id="id10" stroke="none" /><text fill="#e1ed5e" style="font-size:6.75px; font-family:Arial;" text-anchor="middle"><textPath startOffset="22.20632615414155" xlink:href="#id10">October</textPath></text><path d="M 79.16333360222342 97.38593545837743 l -61.09178022142568 -7.664270925721033 a82.5706639516404,82.5706639516404 0 0,0 0.18906323253552193,-1.4087406846388373 l 60.950800989832324 8.714729952424529" fill="#4be2ff" stroke="none" /><path d="M 79.3925641242962 95.95851677861259 l -61.8223076271114 -12.124449664162231 a84.0,84.0 0 0,0 0.2904828163400217,-1.41649737534639 l 61.60444551485639 13.186822695672024" fill="#4dd2ff" stroke="none" /><path d="M 79.46518482838121 95.60439243477599 l -27.001512462787748 -5.779845178151841 a48.61319042706741,48.61319042706741 0 0,0 0.18219671201661994,-0.816752134785444 l 26.89802136376909 6.243775482487244" fill="#fdff18" stroke="none" /><path d="M 79.62865764111835 94.90015583598534 l -44.166335709956535 -11.056778951934472 a66.52930452836418,66.52930452836418 0 0,0 0.2876716613948971,-1.1085162600106089 l 43.96946771669133 11.815391637493946" fill="#33ff50" stroke="none" /><path d="M 79.81627453868168 94.20196356495316 l -32.73013171980591 -9.402154057188714 a55.053810701754884,55.053810701754884 0 0,0 0.2694860515080381,-0.9085729969927205 l 32.56343977118617 9.964156440927974" fill="#a3ff22" stroke="none" /><path d="M 80.52162464483688 92.15188598940014 l -54.453334001085615 -21.940021470246197 a79.70715566222444,79.70715566222444 0 0,0 0.5237075657796493,-1.2681994106469296 l 54.06760474841976 22.874095451346438" fill="#47fffb" stroke="none" /><path d="M 80.65960295795067 91.81776055985345 l -52.40522401540394 -22.170800830835354 a77.90212573872121,77.90212573872121 0 0,0 0.5331075805551446,-1.2304857974312442 l 52.01582572500612 23.069585772853195" fill="#44ffe6" stroke="none" /><path d="M 80.803312248108 91.48605970444005 l -53.756973616548564 -23.841803844320832 a79.80683483202756,79.80683483202756 0 0,0 0.5677598197330191,-1.2509835033656893 l 53.33861147985219 24.763609356528594" fill="#47fffd" stroke="none" /><path d="M 81.10775173730289 90.83032412892265 l -51.27345637179715 -24.886449150022102 a77.99388282620532,77.99388282620532 0 0,0 0.596616015567365,-1.2027414813810529 l 50.837480343276376 25.765350219902118" fill="#44ffe7" stroke="none" /><path d="M 81.26839172434947 90.50648371742162 l -50.71311889308263 -25.70232159817538 a77.85446124447903,77.85446124447903 0 0,0 0.6161274783444716,-1.1901621787239673 l 50.26318198157805 26.571456499159684" fill="#44ffe5" stroke="none" /><line stroke="#e1ed5e" stroke-width="0.3" x1="26.266209847984243" x2="21.928928074336255" y1="57.711370442889674" y2="55.22380399835377" /><path d="M 25.398753493254645 57.213857153982495 a86.0,86.0 0 0,1 29.58750427330803,-30.492523968695096" fill="none" id="id11" stroke="none" /><text fill="#e1ed5e" style="font-size:6.75px; font-family:Arial;" text-anchor="middle"><textPath startOffset="21.46611528233685" xlink:href="#id11">November</textPath></text><path d="M 81.78341655067845 89.55222093294921 l -49.25209700316284 -28.247614571060762 a77.77760815818297,77.77760815818297 0 0,0 0.6760738053387814,-1.1556292858678565 l 48.758563523353736 29.09122326928251" fill="#44ffe4" stroke="none" /><path d="M 81.96595687620814 89.24020034530311 l -38.999513363144224 -23.268600808905838 a66.41354232127547,66.41354232127547 0 0,0 0.5941931134293921,-0.9766972459183669 l 38.59320445142861 23.93646582803128" fill="#33ff4f" stroke="none" /><path d="M 82.95767976084542 87.72973835380427 l -46.696614343665125 -33.62098986215808 a78.54080943532449,78.54080943532449 0 0,0 0.7993860676081348,-1.0903616978493649 l 46.110965663543354 34.41981400367895" fill="#45ffee" stroke="none" /><path d="M 87.22198572758235 83.33499621200491 l -31.162720529284524 -40.642219095479234 a72.21430585091657,72.21430585091657 0 0,0 0.992959931815246,-0.7478768344249844 l 30.458514443710886 41.172612519410066" fill="#3bff9e" stroke="none" /><path d="M 88.39885842347998 82.49532879139004 l -19.45872912408342 -29.360787747291493 a56.22354320998889,56.22354320998889 0 0,0 0.8113136914223134,-0.5277009930596038 l 18.950448406876816 29.691387664510632" fill="#93ff23" stroke="none" /><line stroke="#e1ed5e" stroke-width="0.3" x1="56.76296977257108" x2="54.21961505331056" y1="26.818313649435495" y2="22.513508569990535" /><path d="M 56.25429882871898 25.957352633546506 a86.0,86.0 0 0,1 42.26535254187918,-11.944610805530505" fill="none" id="id12" stroke="none" /><text fill="#e1ed5e" style="font-size:6.75px; font-family:Arial;" text-anchor="middle"><textPath startOffset="22.20632615414155" xlink:href="#id12">December</textPath></text><path d="M 94.28887869178378 79.79150937346287 l -13.937407317736074 -49.31675409056741 a72.24835174686089,72.24835174686089 0 0,0 1.199673940677969,-0.3279162059329445 l 13.086435487834382 49.54935683732664" fill="#3bff9f" stroke="none" /><path d="M 94.98787191387505 79.60689891045804 l -12.971343196383637 -52.777165412687616 a75.34781442998934,75.34781442998934 0 0,0 1.2621703026482298,-0.29871493154988965 l 12.060949206772873 52.99262625637837" fill="#40ffc6" stroke="none" /><path d="M 95.692805502759 79.44645832069477 l -11.303412838029647 -53.938861371050955 a76.11050632857936,76.11050632857936 0 0,0 1.2845771445386962,-0.257674090520115 l 10.373269284023813 54.12543941764828" fill="#41ffd0" stroke="none" /><path d="M 96.40284397218896 79.31037775812273 l -9.645591172122797 -55.478171118489605 a77.31043331135135,77.31043331135135 0 0,0 1.3130654106145916,-0.21666704352998925 l 8.68919655536932 55.635984424959226" fill="#43ffdf" stroke="none" /></svg>