<?xml version="1.0" encoding="utf-8" ?>
<svg baseProfile="full" height="200mm" version="1.1" viewBox="0,0,200,200" width="200mm" xmlns="http://www.w3.org/2000/svg" xmlns:ev="http://www.w3.org/2001/xml-events" xmlns:xlink="http://www.w3.org/1999/xlink"><defs /><rect fill="#1a1a1a" height="200" width="200" x="0" y="0" /><text alignment-baseline="middle" fill="#e1ed5e" style="dominant-baseline: central; font-size:9.0px; font-family:Arial;" text-anchor="middle" x="100.0" y="100.0">2020</text><line stroke="#e1ed5e" stroke-width="0.3" x1="100.0" x2="100.0" y1="15.0" y2="10.0" /><path d="M 100.0 14.0 a86.0,86.0 0 0,1 42.35913384403234,11.155469271406648" fill="none" id="id25" stroke="none" /><text fill="#e1ed5e" style="font-size:6.75px; font-family:Arial;" text-anchor="middle"><textPath startOffset="22.145653131862478" xlink:href="#id25">January</textPath></text><path d="M 100.0 79.0 l 0.0 -43.900546623181924 a64.90054662318192,64.90054662318192 0 0,0 1.1141041845943007,0.009563244489933948 l -0.7536112597454461 43.89407777688643" fill="#33ff57" stroke="none" /><path d="M 101.44090949804482 79.04949213459386 l 1.1379238689933941 -16.545163315203588 a37.58424854668982,37.58424854668982 0 0,0 0.6432830588454377,0.049794177161039066 l -1.4217759226140654 16.523191371047496" fill="#ffa60f" stroke="none" /><path d="M 102.51750503828377 79.15144685158666 l 5.240151530601233 -43.395971817381835 a64.71120632101865,64.71120632101865 0 0,0 1.1016995919983312,0.1426370689784158 l -5.984328944490357 43.29962315220302" fill="#33ff54" stroke="none" /><path d="M 103.94208987418118 79.37332000966035 l 3.2002571562002315 -16.745097741194428 a38.04816542118141,38.04816542118141 0 0,0 0.6404838188327212,0.1281147015620513 l -3.4872374605639096 16.687693642969517" fill="#ffac10" stroke="none" /><path d="M 105.69591212413111 79.78721728523813 l 4.5772001030383205 -16.242868413074838 a37.87547140282956,37.87547140282956 0 0,0 0.6242959620198247,0.18172345595713385 l -4.85535607743975 16.16190126281519" fill="#ffaa0f" stroke="none" /><path d="M 106.04205211174951 79.88797359093562 l 6.343356312278681 -21.114970098745697 a43.04722503117911,43.04722503117911 0 0,0 0.705891198493779,0.21868689770387226 l -6.704888143644091 21.002966613235177" fill="#fff016" stroke="none" /><path d="M 110.02825361518725 81.54914285379988 l 11.988973673270092 -22.058361212569913 a46.10591143779831,46.10591143779831 0 0,0 0.6921503114821929,0.38392411021073125 l -12.365868172908385 21.849304186926037" fill="#e6ff1a" stroke="none" /><line stroke="#e1ed5e" stroke-width="0.3" x1="143.13028292997686" x2="145.6673583964461" y1="26.7553504044142" y2="22.446841604673864" /><path d="M 143.63769802327073 25.89364864446614 a86.0,86.0 0 0,1 29.32050498858742,28.57503671076993" fill="none" id="id26" stroke="none" /><text fill="#e1ed5e" style="font-size:6.75px; font-family:Arial;" text-anchor="middle"><textPath startOffset="20.669276256404974" xlink:href="#id26">February</textPath></text><path d="M 113.03279911837588 83.53348406188908 l 14.264657003149212 -18.022928133899867 a43.98491631346987,43.98491631346987 0 0,0 0.5880348271902401,0.47367923198311246 l -14.571942600694712 17.77540060812335" fill="#fffd17" stroke="none" /><path d="M 115.16444852881244 85.47280134310134 l 25.967487073497907 -24.876265208088917 a56.96024131753646,56.96024131753646 0 0,0 0.6703519690763802,0.7118905608290357 l -26.390694876310548 24.426833187315385" fill="#64ff29" stroke="none" /><line stroke="#e1ed5e" stroke-width="0.3" x1="172.87174338648825" x2="177.1583165268699" y1="56.24261187166439" y2="53.66864786411523" /><path d="M 173.72905801456457 55.72781907015455 a86.0,86.0 0 0,1 12.242430191666344,42.057860355516425" fill="none" id="id27" stroke="none" /><text fill="#e1ed5e" style="font-size:6.75px; font-family:Arial;" text-anchor="middle"><textPath startOffset="22.145653131862474" xlink:href="#id27">March</textPath></text><path d="M 120.26092885502905 94.47779374421319 l 9.570382893392319 -2.6084504151964443 a30.91948800567221,30.91948800567221 0 0,0 0.1351778212882229,0.5132922054089881 l -9.613750195485272 2.4437777054146577" fill="#ff4506" stroke="none" /><path d="M 120.35273937422433 94.82641323984039 l 40.18747678450082 -10.215499446714606 a62.46552446612268,62.46552446612268 0 0,0 0.2552533886616722,1.0415209311720666 l -40.35691769967878 9.524122690934444" fill="#30ff37" stroke="none" /><path d="M 120.77682067341334 96.94652285012252 l 43.958991583705 -6.460457951791531 a65.4311878977269,65.4311878977269 0 0,0 0.15378037671709704,1.1126782003159683 l -44.06341647697731 5.704891443275477" fill="#34ff5d" stroke="none" /><line stroke="#e1ed5e" stroke-width="0.3" x1="184.99686870605535" x2="189.99668451229388" y1="99.2704041080226" y2="99.22748670261217" /><path d="M 185.99683186730306 99.26182062694052 a86.0,86.0 0 0,1 -10.086455211305974,41.156179273409016" fill="none" id="id28" stroke="none" /><text fill="#e1ed5e" style="font-size:6.75px; font-family:Arial;" text-anchor="middle"><textPath startOffset="21.40746469413373" xlink:href="#id28">April</textPath></text><path d="M 120.99922638620191 99.81974689727618 l 38.33955990546629 -0.3290990107410488 a59.34097233904885,59.34097233904885 0 0,0 0.0,1.0187042269297468 l -38.33955990546629 -0.32909901074104414" fill="#4aff2c" stroke="none" /><path d="M 120.77682067341334 103.0534771498775 l 38.43785337938473 5.649040766592433 a59.850743030188,59.850743030188 0 0,0 -0.15811571036813404,1.0152162851208015 l -38.335216176878326 -6.308045233644686" fill="#44ff2d" stroke="none" /><path d="M 120.51834098615036 104.47187691870673 l 37.60282757766739 8.195361254410495 a59.485537386479045,59.485537386479045 0 0,0 -0.22601427513554886,0.9958605986796674 l -37.45660244097418 -8.83965618702918" fill="#48ff2c" stroke="none" /><path d="M 120.26092885502905 105.52220625578681 l 41.511039635529094 11.314018444057364 a64.02526496112415,64.02526496112415 0 0,0 -0.2981184263439664,1.057917124358116 l -41.310702717110544 -12.024943492318489" fill="#32ff4c" stroke="none" /><path d="M 119.16976305983485 108.57439118712176 l 35.295806261186904 15.78736519609781 a59.665680382765814,59.665680382765814 0 0,0 -0.42622757011465695,0.9313841625298825 l -35.01959422621719 -16.390938340842382" fill="#46ff2c" stroke="none" /><path d="M 118.8641267826498 109.22738970284198 l 34.96868593084046 17.104936591972333 a59.92798288564607,59.92798288564607 0 0,0 -0.45996178488353584,0.9202316859516713 l -34.66990423274519 -17.70270013408775" fill="#44ff2d" stroke="none" /><line stroke="#e1ed5e" stroke-width="0.3" x1="174.33088141563837" x2="178.70328620479359" y1="141.23008692659167" y2="143.65538615756765" /><path d="M 175.20536237346943 141.71514677278685 a86.0,86.0 0 0,1 -30.301960400862466,31.631185727798858" fill="none" id="id29" stroke="none" /><text fill="#e1ed5e" style="font-size:6.75px; font-family:Arial;" text-anchor="middle"><textPath startOffset="22.145653131862474" xlink:href="#id29">May</textPath></text><path d="M 117.01052211995028 112.31430620078461 l 34.11330460138059 24.695401788364567 a63.11389818474816,63.11389818474816 0 0,0 -0.6428540646623516,0.8721550024123916 l -33.68434851713441 -25.277363100045836" fill="#31ff40" stroke="none" /><path d="M 116.57777611688842 112.89097897827486 l 30.245452283729197 23.51904663381048 a59.31361296472432,59.31361296472432 0 0,0 -0.6319260161972723,0.798417878071003 l -29.83725983689036 -24.034784455796167" fill="#4aff2c" stroke="none" /><path d="M 115.89218393027572 113.72728997021213 l 41.72561068172657 36.04158871588794 a76.13640089748546,76.13640089748546 0 0,0 -0.8628390973150075,0.9817525035560144 l -41.10076052045298 -36.75255349725525" fill="#42ffdb" stroke="none" /><path d="M 114.91283532996326 114.78537596483092 l 31.11603096833615 30.850083583757083 a64.81706334691147,64.81706334691147 0 0,0 -0.7901758062027329,0.7834222074152977 l -30.581863242003454 -31.379685801401042" fill="#33ff56" stroke="none" /><path d="M 114.13192950727249 115.5334660781643 l 18.471836002254168 20.30378355586688 a48.44908654177154,48.44908654177154 0 0,0 -0.6199982843921342,0.5544062890025876 l -18.120572691038657 -20.617885374752856" fill="#c8ff1d" stroke="none" /><path d="M 111.8722381534696 117.32195027204791 l 18.35136682529325 26.775192635344865 a53.46049298788143,53.46049298788143 0 0,0 -0.7614396139447362,0.5123305542322918 l -17.88903092325151 -27.086272863634278" fill="#8cff24" stroke="none" /><path d="M 111.27062007382361 117.71928675628689 l 20.604761385506503 32.39410725791545 a59.39185300022637,59.39185300022637 0 0,0 -0.8649599573865436,0.5397989855710543 l -20.04563729933024 -32.743042040328056" fill="#49ff2c" stroke="none" /><line stroke="#e1ed5e" stroke-width="0.3" x1="143.1302829299769" x2="145.66735839644613" y1="173.24464959558577" y2="177.55315839532614" /><path d="M 143.63769802327073 174.10635135553383 a86.0,86.0 0 0,1 -40.68552437913181,11.842963189579606" fill="none" id="id30" stroke="none" /><text fill="#e1ed5e" style="font-size:6.75px; font-family:Arial;" text-anchor="middle"><textPath startOffset="21.407464694133747" xlink:href="#id30">June</textPath></text><path d="M 110.34350942703117 118.27599006163325 l 21.59448418575029 38.15538441271049 a64.84238938436556,64.84238938436556 0 0,0 -0.9734257193936575,0.5399428375234704 l -20.936314278200538 -38.5204601656671" fill="#33ff56" stroke="none" /><path d="M 109.71004243097381 118.62028667847754 l 18.72262000064429 35.90309252121686 a61.49158619115314,61.49158619115314 0 0,0 -0.940155924744393,0.48005031405066584 l -18.103536854186316 -36.21920078694036" fill="#33ff2f" stroke="none" /><path d="M 108.07796709384702 119.3841803445677 l 14.689365122416667 35.2491288181917 a59.187413242338685,59.187413242338685 0 0,0 -0.9412082193312775,0.38278118897224767 l -14.08210244189495 -35.49609726374324" fill="#4bff2c" stroke="none" /><path d="M 106.38641147887787 120.00534299687104 l 11.929758797784558 37.3697995202704 a60.22780979303484,60.22780979303484 0 0,0 -0.987619545897984,0.3059670598882551 l -11.28649861901495 -37.569083167965296" fill="#40ff2d" stroke="none" /><path d="M 105.69591212413111 120.21278271476187 l 8.976696390246238 31.8551286744286 a54.09577466908824,54.09577466908824 0 0,0 -0.8959769790835561,0.24420250988187633 l -8.428538010227985 -32.00453167845462" fill="#84ff25" stroke="none" /><path d="M 102.875027216393 120.80226474461374 l 5.239856144443448 37.912988829773965 a59.27336952008573,59.27336952008573 0 0,0 -1.0091211511759037,0.1306509363289974 l -4.588257171376768 -37.99735136230336" fill="#4bff2c" stroke="none" /><line stroke="#e1ed5e" stroke-width="0.3" x1="101.45913802915013" x2="101.54496967792366" y1="184.9874750549273" y2="189.98673829345242" /><path d="M 101.47630435890484 185.9873277026323 a86.0,86.0 0 0,1 -42.54439059252881,-10.42667462771756" fill="none" id="id31" stroke="none" /><text fill="#e1ed5e" style="font-size:6.75px; font-family:Arial;" text-anchor="middle"><textPath startOffset="22.145653131862474" xlink:href="#id31">July</textPath></text><path d="M 100.36049292484886 120.99690560180557 l 0.6754262470293424 39.34019275358314 a60.34599047557771,60.34599047557771 0 0,0 -1.03591917187819,0.008892120189000666 l -4.818494129519849e-15 -39.34599047557771" fill="#3fff2d" stroke="none" /><path d="M 96.76829788921471 120.74984581791261 l -5.926808299176534 38.054360886113436 a59.5131333322251,59.5131333322251 0 0,0 -1.0081028757178603,-0.16588294457123587 l 6.5791886779474575 -37.94701194304653" fill="#48ff2c" stroke="none" /><path d="M 96.05791012581884 120.62667999033965 l -5.36162045979908 28.054263850822284 a49.56201488282103,49.56201488282103 0 0,0 -0.834302211678295,-0.166883808331834 l 5.842419157008333 -27.95809064582759" fill="#baff1f" stroke="none" /><path d="M 94.6519064749342 120.30758222061772 l -6.9968168999299865 26.568053421651296 a48.47393145050164,48.47393145050164 0 0,0 -0.8028635680143382,-0.21882403563800826 l 7.4518618688790195 -26.444028891869145" fill="#c8ff1d" stroke="none" /><path d="M 92.93061703081489 119.77432235084164 l -12.883655014827362 36.037876067930824 a59.27162235950584,59.27162235950584 0 0,0 -0.9551504764531937,-0.35074448516626594 l 13.500394642934674 -35.81140073375584" fill="#4bff2c" stroke="none" /><path d="M 90.6110303473126 118.78422872680471 l -12.405793035890225 24.819896383077783 a48.747629760324756,48.747629760324756 0 0,0 -0.7453112820011965,-0.3805612511429451 l 12.830031539605004 -24.603277180262" fill="#c5ff1e" stroke="none" /><path d="M 89.97174638481275 118.45085714620012 l -8.347848212850996 15.359100473906361 a38.48109084560658,38.48109084560658 0 0,0 -0.5776851207224034,-0.3204321984344469 l 8.610277521729502 -15.213535360038765" fill="#ffb210" stroke="none" /><line stroke="#e1ed5e" stroke-width="0.3" x1="58.13341422392154" x2="55.67067388415222" y1="173.97424548756322" y2="178.32567169271397" /><path d="M 57.64086615596768 174.84453072859336 a86.0,86.0 0 0,1 -31.369924170532247,-30.572349798747897" fill="none" id="id32" stroke="none" /><text fill="#e1ed5e" style="font-size:6.75px; font-family:Arial;" text-anchor="middle"><textPath startOffset="22.145653131862474" xlink:href="#id32">August</textPath></text><path d="M 89.34428304082925 118.09573695890944 l -21.355737009036115 36.26671025139909 a63.08731133795613,63.08731133795613 0 0,0 -0.9284867338774032,-0.5575296061026788 l 21.97515649947095 -35.89476664476049" fill="#31ff40" stroke="none" /><path d="M 88.72937992617639 117.7192867562869 l -20.979755557769227 32.98366038158895 a60.09056146222191,60.09056146222191 0 0,0 -0.8656313432412078,-0.5610917784277663 l 21.542872533267445 -32.618654761457286" fill="#42ff2d" stroke="none" /><path d="M 88.1277618465304 117.32195027204791 l -21.59028427780684 31.500869994782985 a59.18959525348144,59.18959525348144 0 0,0 -0.8331778527793862,-0.5816228490929535 l 22.127857221759992 -31.125602329884902" fill="#4bff2c" stroke="none" /><path d="M 84.83555147118756 114.52719865689866 l -19.791186224061704 18.959508707906576 a48.40718925028021,48.40718925028021 0 0,0 -0.5696930680205676,-0.604994296134253 l 20.113735125818526 -18.616972951827833" fill="#c9ff1d" stroke="none" /><path d="M 83.8745106332314 113.45245675266167 l -17.965934535157068 14.987821569832025 a44.39678608550054,44.39678608550054 0 0,0 -0.48319174644872787,-0.5894153647884546 l 18.220573100844426 -14.677203923345076" fill="#fcff18" stroke="none" /><path d="M 82.18462484594161 111.11811171558189 l -4.636421968362808 2.893470216544556 a26.465215326292977,26.465215326292977 0 0,0 -0.23721911199972137,-0.3874795917431719 l 4.685409044817934 -2.813453508676827" fill="#ff0000" stroke="none" /><line stroke="#e1ed5e" stroke-width="0.3" x1="26.387840678322732" x2="22.057713659400534" y1="142.50000000000003" y2="145.00000000000006" /><path d="M 25.521815274538284 143.00000000000003 a86.0,86.0 0 0,1 -11.493303480769212,-40.785679425670985" fill="none" id="id33" stroke="none" /><text fill="#e1ed5e" style="font-size:6.75px; font-family:Arial;" text-anchor="middle"><textPath startOffset="21.40746469413373" xlink:href="#id33">September</textPath></text><path d="M 81.63589988554817 110.18625677009913 l -21.738314411876527 12.057876561795828 a45.858533759035424,45.858533759035424 0 0,0 -0.37594094506858794,-0.6916889958150928 l 21.942100706560446 -11.682932732506147" fill="#e9ff1a" stroke="none" /><path d="M 81.29705330413844 109.54985784667822 l -37.790726684921 19.29621431490906 a63.432097641541375,63.432097641541375 0 0,0 -0.486856714429772,-0.974039561243208 l 38.116403312562504 -18.644642897502102" fill="#31ff44" stroke="none" /><path d="M 79.73907114497094 105.5222062557868 l -48.22547587138331 13.14406789791111 a70.98462807630233,70.98462807630233 0 0,0 -0.31033978850325106,-1.1784107255830814 l 48.444005140691296 -12.314276667955227" fill="#3cffa1" stroke="none" /><path d="M 79.407916724674 104.11899336999214 l -37.77036647240159 7.555131115286954 a59.51857460536014,59.51857460536014 0 0,0 -0.19180202960122764,-1.00358926669673 l 37.894494794284974 -6.9056392835569085" fill="#48ff2c" stroke="none" /><path d="M 79.00696218219943 100.54070618675478 l -22.09570699933408 0.5691070334342064 a43.10303487342689,43.10303487342689 0 0,0 -0.012702194267585043,-0.7398391357723909 l 22.10222062520033 -0.18972098169276308" fill="#fff116" stroke="none" /><line stroke="#e1ed5e" stroke-width="0.3" x1="15.003131293944662" x2="10.003315487706104" y1="100.72959589197737" y2="100.7725132973878" /><path d="M 14.003168132696942 100.73817937305945 a86.0,86.0 0 0,1 10.791469493833604,-42.45332614584628" fill="none" id="id34" stroke="none" /><text fill="#e1ed5e" style="font-size:6.75px; font-family:Arial;" text-anchor="middle"><textPath startOffset="22.145653131862435" xlink:href="#id34">October</textPath></text><path d="M 79.83685265289637 94.1308016681162 l -31.661856676617028 -9.216305033719765 a53.97595255159745,53.97595255159745 0 0,0 0.26659925856957917,-0.8874222250684733 l 31.498981098043817 9.758464862378963" fill="#86ff25" stroke="none" /><path d="M 80.83023694016515 91.42560881287825 l -39.911353464664366 -17.851840752822906 a64.72189787332573,64.72189787332573 0 0,0 0.462347149764951,-1.0103119626120478 l 39.599021850044366 18.534341697649623" fill="#33ff54" stroke="none" /><path d="M 81.29705330413844 90.45014215332179 l -29.51733093193543 -15.071759493155952 a54.14258227062171,54.14258227062171 0 0,0 0.4297681709225353,-0.8241371348013642 l 29.254254692037954 15.576242871061803" fill="#84ff25" stroke="none" /><line stroke="#e1ed5e" stroke-width="0.3" x1="26.387840678322718" x2="22.05771365940052" y1="57.49999999999999" y2="54.99999999999999" /><path d="M 25.521815274538284 56.99999999999999 a86.0,86.0 0 0,1 29.574782752854787,-30.34633250058573" fill="none" id="id35" stroke="none" /><text fill="#e1ed5e" style="font-size:6.75px; font-family:Arial;" text-anchor="middle"><textPath startOffset="21.40746469413373" xlink:href="#id35">November</textPath></text><path d="M 82.18462484594161 88.88188828441811 l -46.50014064135243 -29.0195268957361 a75.81237105725228,75.81237105725228 0 0,0 0.6984929788319877,-1.0981469793239322 l 45.99512997089455 29.813487549738703" fill="#42ffd7" stroke="none" /><path d="M 83.42222388311158 87.10902102172516 l -21.73077776188865 -16.897984225078844 a48.527596571579,48.527596571579 0 0,0 0.5170120187307469,-0.6532277962161711 l 21.43749931251634 17.268531965209696" fill="#c7ff1e" stroke="none" /><path d="M 87.83215693770416 82.88440491214696 l -17.953220063867985 -25.253452363175487 a51.984753781833504,51.984753781833504 0 0,0 0.7317594477158641,-0.5108249258083519 l 17.517065524978353 25.557922104788965" fill="#9dff22" stroke="none" /><path d="M 88.72937992617638 82.28071324371311 l -16.174037888309037 -25.42827399670909 a51.13630070304197,51.13630070304197 0 0,0 0.7447292893327042,-0.4647661564837003 l 15.735144470186633 25.702175950034327" fill="#a7ff21" stroke="none" /><line stroke="#e1ed5e" stroke-width="0.3" x1="56.869717070023135" x2="54.33264160355391" y1="26.7553504044142" y2="22.446841604673864" /><path d="M 56.362301976729285 25.89364864446614 a86.0,86.0 0 0,1 42.16139366436587,-11.88097634709845" fill="none" id="id36" stroke="none" /><text fill="#e1ed5e" style="font-size:6.75px; font-family:Arial;" text-anchor="middle"><textPath startOffset="22.145653131862474" xlink:href="#id36">December</textPath></text><path d="M 89.34428304082924 81.90426304109057 l -13.864411496887488 -23.544801771581607 a48.32360877735769,48.32360877735769 0 0,0 0.7184283162123034,-0.4147847817586207 l 13.458190712814785 23.779333450616402" fill="#caff1d" stroke="none" /><path d="M 91.92203290615298 80.6158196554323 l -12.653345514082757 -30.363422945103615 a53.89444642552908,53.89444642552908 0 0,0 0.8570385690674394,-0.3485501249615006 l 12.130252483824878 30.57616032664441" fill="#87ff25" stroke="none" /><path d="M 92.93061703081487 80.22567764915836 l -21.208148907555373 -59.32296705252492 a84.0,84.0 0 0,0 1.3619769118199827,-0.47376626972565683 l 20.186666223690388 59.67829175481917" fill="#4dd2ff" stroke="none" /></svg>